<?xml version="1.0" encoding="utf-8"?>
<!-- Generator: Adobe Illustrator 18.0.0, SVG Export Plug-In . SVG Version: 6.00 Build 0)  -->
<!DOCTYPE svg PUBLIC "-//W3C//DTD SVG 1.1//EN" "http://www.w3.org/Graphics/SVG/1.1/DTD/svg11.dtd">
<svg version="1.1" xmlns="http://www.w3.org/2000/svg" xmlns:xlink="http://www.w3.org/1999/xlink" x="0px" y="0px"
	 viewBox="0 0 270.1 173.6" enable-background="new 0 0 270.1 173.6" xml:space="preserve">
<g id="Layer_2">
	<rect x="-1806.5" y="-399.7" fill="#082A4A" width="1280" height="800"/>
	<path d="M-1126.6-951.1h-79.8c-1.4,0-2.6,1.2-2.6,2.6v0.1c0,1.4,1.2,2.6,2.6,2.6h3.2v9.7h73.3v-9.7h3.2c1.4,0,2.6-1.2,2.6-2.6v-0.1
		C-1124-949.9-1125.2-951.1-1126.6-951.1z M-1126.7-930.8h-79.7c-1.5,0-2.7,1.2-2.7,2.7c0,1.5,1.2,2.7,2.7,2.7h3.2v55.7h17.6v-17.5
		c0-10.5,8.5-19,19-19s19,8.5,19,19v17.5h17.6v-55.7h3.2c1.5,0,2.7-1.2,2.7-2.7C-1124-929.6-1125.2-930.8-1126.7-930.8z"/>
	<path d="M-1275.5-847.5v2c2.1,0,3.3,0.2,3.7,0.5c0.2,0.2,0.4,0.5,0.4,1.1c0.2,1.5,0.3,6.4,0.3,14.8v5.4c-2.2-2.2-4.9-5.3-8.2-9.3
		c-4.6-5.5-8.5-10.3-11.7-14.5l-2.2,0.1l-3.4,0.1c-0.9,0-2.4-0.1-4.4-0.2v2c1.6,0.1,2.6,0.2,3,0.3c0.3,0.1,0.6,0.2,0.7,0.4
		c0.1,0.2,0.3,0.4,0.3,0.8c0.1,0.3,0.1,1.1,0.1,2.2l0.1,6.8v7.5c0,2.1,0,3.8-0.1,5.1c-0.1,2.3-0.2,3.7-0.3,4.3
		c-0.1,0.4-0.2,0.7-0.3,0.9s-0.3,0.2-0.4,0.3c-0.3,0.1-1.3,0.2-3.2,0.3v2c2.6-0.1,4.7-0.2,6.2-0.2c0.4,0,2.1,0,5.1,0.1v-1.9
		c-0.2,0-0.4,0-0.5,0c-0.5,0-1.2-0.1-2.2-0.2c-0.4,0-0.6-0.1-0.8-0.2s-0.3-0.3-0.3-0.5c-0.1-0.4-0.2-1.5-0.3-3.3
		c-0.1-2.6-0.2-5.1-0.2-7.6v-11.7c9.3,11.3,16.4,19.8,21.5,25.4c1.4,0.2,2.7,0.4,4,0.6l0.3-0.2c-0.2-2.2-0.3-8.5-0.3-18.9
		c0-1.3,0-3.4,0.1-6.2s0.2-4.6,0.5-5.4c0-0.2,0.1-0.3,0.3-0.4c0.4-0.2,1.5-0.4,3.4-0.4v-2c-2.4,0.1-4.4,0.2-6,0.2
		C-1271.9-847.4-1273.6-847.4-1275.5-847.5z M-1239.6-833c-0.5-0.8-1.2-1.7-2.1-2.5c-0.9-0.8-2-1.4-3.2-1.8
		c-1.6-0.6-3.4-0.8-5.4-0.8c-2,0-3.9,0.3-5.5,0.9c-1.3,0.5-2.5,1.2-3.7,2.2s-2,2.3-2.6,3.8c-0.6,1.5-0.9,3.2-0.9,5.2
		c0,2.6,0.5,4.8,1.5,6.5c1,1.7,2.4,3.1,4.2,3.9c1.8,0.9,3.9,1.3,6.3,1.3c2.3,0,4.3-0.4,6.1-1.1c1.3-0.5,2.4-1.3,3.5-2.3
		c1-1,1.8-2.2,2.3-3.5c0.7-1.8,1.1-3.7,1.1-5.7c0-1.2-0.1-2.3-0.4-3.3C-1238.7-831.2-1239.1-832.1-1239.6-833z M-1244.1-820.4
		c-0.6,1.6-1.5,2.7-2.6,3.3c-1.1,0.7-2.3,1-3.7,1c-1.5,0-2.8-0.3-3.9-1c-1.1-0.7-2-1.9-2.7-3.5c-0.7-1.7-1-3.8-1-6.3
		c0-1.8,0.3-3.4,0.8-4.9c0.5-1.5,1.3-2.6,2.4-3.3s2.5-1.1,4.1-1.1c1.4,0,2.5,0.2,3.4,0.7c0.8,0.5,1.6,1.2,2.2,2
		c0.6,0.9,1.1,2,1.4,3.2c0.3,1.3,0.5,2.7,0.5,4.2C-1243.2-823.8-1243.5-821.9-1244.1-820.4z M-1213.6-836.3v-1.4l-3.5,0.1l-4.2-0.1
		v1.4c0.5,0,1.1,0,1.8,0.1c0.3,0,0.5,0,0.6,0.1c0.1,0,0.2,0.1,0.2,0.2s0.1,0.2,0.1,0.4c0,0.1,0,0.3,0,0.4c-0.1,0.4-0.4,1.3-0.9,2.6
		c-0.7,1.9-1.1,2.9-1.2,3.1l-3.6,9l-4.1-10.1c0-0.1-0.1-0.2-0.1-0.3s-0.2-0.6-0.7-1.6c-0.7-1.7-1.1-2.8-1.1-3.1c0-0.2,0-0.3,0.1-0.4
		c0.1-0.1,0.3-0.2,0.5-0.2c0.4-0.1,1.1-0.2,2-0.2v-1.4l-5.9,0.1c-0.6,0-2.2,0-4.8-0.1v1.4c1,0,1.7,0.1,2,0.3c0.2,0.1,0.5,0.6,1,1.4
		c0.4,0.8,1.5,3.4,3.4,7.8l2.3,5.6c0.9,2.1,1.7,4.2,2.7,6.5h2.5c0.7-1.9,1.9-5.1,3.8-9.6l2.2-5.3l1.2-2.7c0.9-2.3,1.6-3.5,1.9-3.7
		C-1215.3-836.1-1214.7-836.2-1213.6-836.3z M-1194.2-816.3c-0.1,0-0.2-0.1-0.3-0.2c-0.1-0.1-0.2-0.2-0.3-0.4l-0.7-1.5l-1-2.2
		l-7.3-17.1h-2.3l-1.4,3.7l-4.3,10.6c-0.8,2-1.4,3.3-1.6,4c-0.6,1.4-1,2.3-1.1,2.5c-0.1,0.2-0.2,0.4-0.4,0.5
		c-0.1,0.1-0.3,0.2-0.4,0.2c-0.2,0-0.7,0.1-1.6,0.2v1.4l3.8-0.1l3.8,0.1v-1.4c-1.3,0-2.1-0.1-2.3-0.3c-0.2-0.1-0.3-0.3-0.3-0.6
		c0-0.4,0.3-1.3,0.8-2.8l0.7-2h8.5l1.4,3.6c0.3,0.6,0.4,1.1,0.4,1.3c0,0.2-0.1,0.4-0.3,0.5s-0.9,0.2-2.2,0.2v1.4l5.8-0.1l4.6,0.1
		v-1.4c-0.3,0-0.6-0.1-0.7-0.1C-1193.7-816.2-1194.1-816.3-1194.2-816.3z M-1206.3-823.6c-1.3,0-2.5,0-3.5,0l3.4-8.5l3.5,8.5
		C-1203.9-823.6-1205-823.6-1206.3-823.6z M-1160.2-847.6l-11.3,0.2l-8.3-0.2v2c1.5,0.1,2.4,0.2,2.8,0.3s0.6,0.2,0.7,0.2
		s0.2,0.2,0.2,0.4c0.1,0.5,0.2,1.4,0.3,2.6c0.1,4.2,0.2,6.3,0.2,6.6v9.7c0,0.8,0,2.2-0.1,4.1s-0.1,3-0.2,3.4c-0.1,0.6-0.2,1-0.3,1.2
		c-0.1,0.1-0.2,0.2-0.4,0.3c-0.3,0.1-1.3,0.2-3.1,0.2v1.9c2.9-0.1,5-0.2,6.3-0.2l9.2,0.2v-1.9c-2.2-0.2-3.4-0.3-3.7-0.4
		s-0.5-0.2-0.6-0.4c-0.2-0.2-0.3-1.1-0.4-2.6s-0.1-4.1-0.1-7.8v-2.6c0.9,0,1.5,0,1.9,0c2.5,0,4.3,0.1,5.5,0.3
		c0.5,0.1,0.7,0.2,0.8,0.4c0.2,0.4,0.4,1.6,0.4,3.5h2.1v-10.2h-2.1c0,1.4-0.1,2.3-0.3,2.7c-0.1,0.3-0.2,0.5-0.4,0.5
		c-0.5,0.2-1.8,0.3-3.8,0.3c-0.7,0-2-0.1-4-0.2v-3.3c0-4.1,0.1-6.9,0.3-8.4c0.4,0,1.3-0.1,2.5-0.1s1.9-0.1,2.2-0.1
		c1.4,0,2.6,0.1,3.6,0.3s1.7,0.4,2,0.5c0.1,0,0.2,0.1,0.2,0.2c0.1,0.1,0.1,0.6,0.1,1.2c0.1,1.3,0.1,2.1,0.1,2.5h1.9
		c0-1,0.1-2.2,0.2-3.6s0.3-2.5,0.4-3.4l-0.2-0.3C-1157.2-847.5-1158.6-847.6-1160.2-847.6z M-1134.3-816.7c-0.2-0.2-0.7-0.8-1.5-1.9
		c-0.1-0.1-0.4-0.6-1.1-1.6l-2.5-3.8c-0.1-0.1-0.1-0.2-0.2-0.3s-0.3-0.4-0.6-0.9c-0.3-0.5-0.7-1-0.9-1.5c1.7-0.6,3-1.5,3.8-2.6
		c0.8-1.1,1.2-2.3,1.2-3.6c0-1.1-0.3-2.1-0.9-2.8s-1.3-1.3-2.2-1.5c-0.9-0.2-2.1-0.4-3.9-0.4c-0.9,0-2,0-3.4,0.1
		c-0.8,0-1.8,0.1-3,0.1c-1.3,0-2.4,0-3.1,0c-1.5-0.1-2.4-0.1-2.6-0.1v1.3c1.3,0.1,2.2,0.2,2.4,0.3c0.1,0.1,0.2,0.2,0.2,0.3
		c0.1,0.3,0.2,1.1,0.2,2.5l0.1,3.5v6.1l-0.1,4.8c0,0.9-0.1,1.5-0.2,1.9c0,0.2-0.1,0.4-0.1,0.5c-0.1,0.1-0.2,0.1-0.3,0.2
		c-0.2,0.1-1,0.1-2.2,0.2v1.4c1.5-0.1,3-0.1,4.7-0.1c1.9,0,3.8,0,5.7,0.1v-1.4c-1.1,0-1.7-0.1-1.9-0.1s-0.4-0.1-0.5-0.2
		c-0.1-0.1-0.2-0.2-0.2-0.2c-0.1-0.2-0.1-0.6-0.2-1.2c0-0.3-0.1-1.6-0.1-3.8c0-1.8-0.1-3.6-0.1-5.2c0-1,0-3.1,0.1-6.2
		c0-1.4,0.1-2.3,0.1-2.7c0.5-0.1,1-0.1,1.6-0.1c1.2,0,2,0.1,2.5,0.2c0.7,0.3,1.3,0.7,1.8,1.4c0.5,0.7,0.7,1.5,0.7,2.5
		c0,1-0.2,1.9-0.7,2.7c-0.5,0.8-1,1.4-1.7,1.7c-0.7,0.3-1.7,0.4-3,0.4l-0.2,0.5c0.3,0.2,0.7,0.6,1,1.1c0.7,1,1.6,2.3,2.6,3.9
		l3.5,5.8c0.2,0.4,0.3,0.7,0.4,0.9c0.9,0,1.7-0.1,2.6-0.1c0.8,0,2,0,3.7,0.1v-1.4c-0.5,0-0.9-0.1-1-0.1
		C-1133.9-816.4-1134.1-816.5-1134.3-816.7z M-1108.5-816.3c-0.1,0-0.2-0.1-0.3-0.2c-0.1-0.1-0.2-0.2-0.3-0.4l-0.7-1.5l-1-2.2
		l-7.3-17.1h-2.3l-1.4,3.7l-4.3,10.6c-0.8,2-1.4,3.3-1.6,4c-0.6,1.4-1,2.3-1.1,2.5c-0.1,0.2-0.2,0.4-0.4,0.5
		c-0.1,0.1-0.3,0.2-0.4,0.2c-0.2,0-0.7,0.1-1.6,0.2v1.4l3.8-0.1l3.8,0.1v-1.4c-1.3,0-2.1-0.1-2.3-0.3c-0.2-0.1-0.3-0.3-0.3-0.6
		c0-0.4,0.3-1.3,0.8-2.8l0.7-2h8.5l1.4,3.6c0.2,0.6,0.4,1.1,0.4,1.3c0,0.2-0.1,0.4-0.3,0.5c-0.2,0.1-0.9,0.2-2.2,0.2v1.4l5.8-0.1
		l4.6,0.1v-1.4c-0.3,0-0.6-0.1-0.7-0.1C-1108.1-816.2-1108.4-816.3-1108.5-816.3z M-1120.6-823.6c-1.3,0-2.5,0-3.5,0l3.4-8.5
		l3.5,8.5C-1118.2-823.6-1119.4-823.6-1120.6-823.6z M-1087.3-837.7v1.4c1.5,0,2.3,0.1,2.6,0.3c0.2,0.1,0.2,0.4,0.3,0.8
		c0.1,1,0.2,4.5,0.2,10.4v3.8c-1.5-1.6-3.4-3.7-5.7-6.5c-3.2-3.8-5.9-7.2-8.2-10.2l-1.5,0.1l-2.4,0.1c-0.7,0-1.7,0-3.1-0.1v1.4
		c1.2,0.1,1.8,0.1,2.1,0.2c0.2,0.1,0.4,0.2,0.5,0.3c0.1,0.1,0.2,0.3,0.2,0.5c0.1,0.2,0.1,0.8,0.1,1.6l0.1,4.8v5.3
		c0,1.5,0,2.6-0.1,3.5c-0.1,1.6-0.2,2.6-0.2,3c-0.1,0.3-0.1,0.5-0.2,0.6s-0.2,0.2-0.3,0.2c-0.2,0.1-0.9,0.1-2.2,0.2v1.4
		c1.8-0.1,3.3-0.1,4.3-0.1c0.3,0,1.5,0,3.5,0v-1.3c-0.2,0-0.3,0-0.3,0c-0.3,0-0.8,0-1.6-0.1c-0.3,0-0.4-0.1-0.5-0.2
		s-0.2-0.2-0.2-0.3c-0.1-0.3-0.2-1-0.2-2.3c-0.1-1.8-0.1-3.6-0.1-5.3v-8.2c6.5,7.9,11.5,13.8,15,17.8c1,0.1,1.9,0.3,2.8,0.4l0.2-0.1
		c-0.1-1.6-0.2-6-0.2-13.2c0-0.9,0-2.4,0.1-4.3c0-2,0.2-3.2,0.3-3.7c0-0.1,0.1-0.2,0.2-0.2c0.3-0.2,1-0.3,2.4-0.3v-1.4
		c-1.7,0.1-3.1,0.1-4.2,0.1C-1084.7-837.6-1086-837.6-1087.3-837.7z M-1064.9-836.2c1.4,0,2.6,0.2,3.5,0.6s1.7,0.9,2.5,1.7
		c0.1,0.7,0.1,1.7,0.2,2.9h1.3c0-1,0.1-2.2,0.3-3.4c0.1-0.8,0.2-1.4,0.4-1.9l-0.1-0.2c-1.6-0.6-2.9-0.9-4.1-1.2s-2.5-0.3-4-0.3
		c-4.3,0-7.6,1.1-10,3.3c-2.4,2.2-3.5,5-3.5,8.5c0,1.9,0.4,3.7,1.1,5.3c0.5,1.1,1.2,2.2,2.1,3.2c0.9,1,2,1.8,3.2,2.4
		c1.3,0.6,2.8,1,4.5,1.3l-1.3,2.9l0.4,0.3c0.3-0.1,0.6-0.2,0.9-0.2c0.4,0,0.8,0.1,1.1,0.4c0.3,0.2,0.4,0.5,0.4,0.8
		c0,0.4-0.1,0.6-0.4,0.9s-0.7,0.4-1.2,0.4c-0.6,0-1.4-0.1-2.2-0.4l-0.6,1.3c1,0.4,2.1,0.6,3.3,0.6c1.6,0,2.7-0.3,3.5-0.9
		c0.8-0.6,1.1-1.3,1.1-2.1c0-0.7-0.3-1.2-0.8-1.7c-0.5-0.5-1.3-0.7-2.4-0.7c-0.3,0-0.6,0-1,0.1l0.7-1.7h0.8c1.6,0,3-0.1,4.1-0.4
		c1.1-0.3,2.3-0.8,3.7-1.5l0.8-1.7l-0.4-0.4c-1.2,0.6-2.3,1-3.2,1.3c-1,0.3-2.1,0.4-3.2,0.4c-1.7,0-3.1-0.3-4.3-0.8
		c-0.9-0.4-1.7-1-2.6-1.9c-0.9-0.9-1.6-1.9-2.1-3.3s-0.8-2.8-0.8-4.6c0-2.9,0.8-5.2,2.3-6.8
		C-1069.5-835.4-1067.4-836.2-1064.9-836.2z M-1031.6-816.2c-0.5,0-0.8-0.1-1-0.1c-0.1,0-0.2-0.1-0.3-0.2c-0.1-0.1-0.2-0.2-0.3-0.4
		l-0.7-1.5l-1-2.2l-7.3-17.1h-2.3l-1.4,3.7l-4.3,10.6c-0.8,2-1.4,3.3-1.6,4c-0.6,1.4-1,2.3-1.1,2.5c-0.1,0.2-0.2,0.4-0.4,0.5
		c-0.1,0.1-0.3,0.2-0.4,0.2c-0.2,0-0.7,0.1-1.6,0.2v1.4l3.8-0.1l3.8,0.1v-1.4c-1.3,0-2.1-0.1-2.3-0.3c-0.2-0.1-0.3-0.3-0.3-0.6
		c0-0.4,0.3-1.3,0.8-2.8l0.7-2h8.5l1.4,3.6c0.3,0.6,0.4,1.1,0.4,1.3c0,0.2-0.1,0.4-0.3,0.5s-0.9,0.2-2.2,0.2v1.4l5.8-0.1l4.6,0.1
		v-1.4C-1031.2-816.2-1031.5-816.2-1031.6-816.2z M-1044.7-823.6c-1.3,0-2.5,0-3.5,0l3.4-8.5l3.5,8.5
		C-1042.3-823.6-1043.5-823.6-1044.7-823.6z"/>
	<path d="M-1262.3-778.4c-0.1-0.1-0.4-0.5-1-1.3l-2.1-2.7c-0.5-0.7-0.8-1.1-1-1.3c0.7-0.2,1.4-0.4,1.8-0.7s0.8-0.7,1.1-1.1
		s0.4-0.9,0.4-1.4c0-0.5-0.1-0.9-0.4-1.4c-0.3-0.4-0.6-0.7-1.1-0.9c-0.5-0.2-1.2-0.3-2.3-0.3c-0.1,0-0.6,0-1.5,0c-0.7,0-1.1,0-1.5,0
		l-1.6,0c-0.4,0-0.8,0-1,0v0.5c0.7,0,1,0,1.2,0.1c0.1,0,0.2,0.1,0.3,0.2s0.1,0.4,0.1,0.9c0,0.7,0,1.4,0,2.2v3.8c0,1.4,0,2.2,0,2.3
		c0,0.4-0.1,0.7-0.1,0.8c-0.1,0.1-0.2,0.1-0.3,0.2c-0.1,0-0.5,0.1-1.2,0.1v0.5c1.2,0,2.1-0.1,2.6-0.1c0.7,0,1.4,0,2.1,0.1v-0.5
		c-0.6,0-1,0-1.2-0.1c-0.1,0-0.2-0.1-0.3-0.2c-0.1-0.1-0.1-0.4-0.1-0.9c0-0.7,0-1.4,0-2.2v-3.6c0-1.5,0.1-2.3,0.1-2.4
		c0-0.3,0-0.5,0-0.8c0.5-0.2,1.1-0.3,1.7-0.3c0.9,0,1.6,0.2,2,0.6s0.7,0.9,0.7,1.6c0,0.8-0.3,1.4-0.8,1.9c-0.5,0.5-1.3,0.7-2.3,0.7
		c-0.1,0-0.4,0-0.6,0l-0.1,0.2c0.5,0.6,1.1,1.3,1.6,2c0.4,0.4,0.8,1,1.2,1.7c0.8,1.2,1.4,2,1.8,2.4c0.5,0,0.9-0.1,1.2-0.1
		c0.3,0,0.7,0,1.1,0.1v-0.5c-0.3,0-0.5,0-0.5,0C-1262.2-778.3-1262.2-778.4-1262.3-778.4z M-1242.6-779.5c-0.1,0.3-0.1,0.5-0.2,0.7
		c-0.3,0.1-0.5,0.2-0.8,0.2s-0.8,0.1-1.5,0.1c-1,0-1.9,0-2.6-0.1c0-0.5,0-1.3,0-2.3c0-1.1,0-1.9,0-2.4c0.7,0,1.2,0,1.6,0
		c0.9,0,1.5,0,1.8,0.1c0.2,0,0.3,0.1,0.4,0.2c0.1,0.1,0.1,0.4,0.1,0.8l0,0.6h0.6l0-1.9l0-1.7v-0.2h-0.5l0,0.6c0,0.4-0.1,0.6-0.1,0.7
		s-0.2,0.1-0.3,0.1c-0.5,0.1-1,0.1-1.7,0.1c-0.5,0-1.1,0-1.8-0.1l0-2.8c0-0.5,0-1.1,0-1.7c0.2,0,0.5,0,1-0.1c0.5,0,0.7,0,0.9,0
		c0.6,0,1.2,0,1.8,0.1c0.4,0,0.7,0.1,1,0.3c0.1,0.5,0.1,1,0.1,1.5h0.5c0.1-1.1,0.1-1.7,0.1-1.7c0-0.2,0.1-0.5,0.2-0.8
		c-0.5-0.1-1-0.1-1.5-0.1c-0.5,0-1.4,0-2.6,0l-2.5,0l-2.3,0v0.5c0.7,0,1,0,1.2,0.1c0.1,0,0.2,0.1,0.3,0.2c0.1,0.1,0.1,0.4,0.1,0.9
		c0,0.7,0,1.4,0,2.2v4.2c0,0.5,0,1.1,0,1.9c0,0.5-0.1,0.8-0.1,0.9c0,0.1-0.1,0.1-0.2,0.2c-0.2,0.1-0.6,0.1-1.1,0.1v0.5
		c1.4,0,2.1-0.1,2.1-0.1l4.9,0.1c0.7,0,1.2,0,1.7-0.1c0-0.7,0.1-1.6,0.2-2.7h-0.5C-1242.4-780.4-1242.5-780-1242.6-779.5z
		 M-1223.7-783.6c-0.2-0.2-0.6-0.4-1.1-0.5c-0.5-0.1-1.2-0.2-1.8-0.3c-0.7-0.1-1.2-0.2-1.5-0.3c-0.4-0.2-0.7-0.4-0.9-0.6
		c-0.2-0.3-0.3-0.6-0.3-1.1c0-0.8,0.2-1.4,0.7-1.9s1.1-0.7,1.9-0.7c0.6,0,1.2,0.2,1.8,0.5c0.2,0.2,0.4,0.3,0.6,0.5
		c0,0.1,0.1,0.5,0.1,1.4h0.5c0-0.6,0-1,0.1-1.3s0.1-0.6,0.2-1c-0.5-0.2-1-0.4-1.5-0.5c-0.5-0.1-1.1-0.2-1.5-0.2
		c-0.8,0-1.5,0.2-2.1,0.5c-0.7,0.3-1.2,0.8-1.5,1.3c-0.3,0.6-0.5,1.2-0.5,1.8c0,0.4,0.1,0.9,0.2,1.2c0.2,0.4,0.4,0.7,0.7,0.9
		c0.3,0.2,0.7,0.4,1.3,0.6c0.4,0.1,0.9,0.2,1.6,0.3c0.6,0.1,1,0.1,1.2,0.2c0.3,0.1,0.6,0.2,0.8,0.3c0.2,0.2,0.4,0.4,0.5,0.6
		c0.1,0.3,0.2,0.6,0.2,0.9c0,0.5-0.1,0.9-0.3,1.3s-0.6,0.7-1,1c-0.5,0.3-1,0.4-1.5,0.4c-0.4,0-0.8-0.1-1.2-0.2s-0.7-0.3-1-0.4
		c-0.2-0.2-0.4-0.3-0.5-0.5s-0.1-0.6-0.1-1.4h-0.5c0,1.2-0.1,2-0.2,2.5c0.9,0.4,1.9,0.6,2.9,0.6c1.4,0,2.6-0.4,3.5-1.2
		c0.9-0.8,1.4-1.8,1.4-2.8c0-0.5-0.1-0.9-0.2-1.2C-1223.2-783.1-1223.4-783.4-1223.7-783.6z M-1212.3-789.4v0.5c0.7,0,1,0,1.2,0.1
		c0.1,0,0.2,0.1,0.3,0.2c0.1,0.1,0.1,0.4,0.1,0.9c0,0.7,0,1.4,0,2.2v3.8c0,1.4,0,2.2,0,2.3c0,0.4-0.1,0.7-0.1,0.8
		c-0.1,0.1-0.2,0.1-0.3,0.2c-0.1,0-0.5,0.1-1.2,0.1v0.5l2.5-0.1c0.4,0,1.1,0,2.3,0.1v-0.5c-0.7,0-1,0-1.2-0.1
		c-0.1,0-0.2-0.1-0.3-0.2c-0.1-0.1-0.1-0.4-0.1-0.9c0-0.7,0-1.4,0-2.2v-3.8c0-1.4,0-2.2,0-2.3c0-0.4,0.1-0.7,0.1-0.8
		c0.1-0.1,0.2-0.1,0.3-0.2c0.1,0,0.5-0.1,1.2-0.1v-0.5c-1.1,0-1.9,0.1-2.4,0.1C-1210.4-789.3-1211.2-789.4-1212.3-789.4z
		 M-1187.5-788.9c-0.8-0.3-1.9-0.5-3.2-0.5c-0.4,0-1.1,0-1.9,0c-0.8,0-1.5,0-1.9,0c-0.6,0-1.3,0-2.1,0v0.5c0.6,0,0.9,0,1.1,0.1
		c0.1,0,0.1,0.1,0.2,0.2c0.1,0.1,0.1,0.4,0.1,0.8c0,0.7,0,1.3,0,1.9v3.3c0,0.4,0,1.2-0.1,2.3c0,0.7,0,1.2-0.1,1.5
		c-0.2,0.1-0.5,0.3-0.8,0.5v0.4c0.8,0,1.4-0.1,1.8-0.1c0.2,0,0.7,0,1.5,0c0.6,0,1,0,1.4,0c1,0,1.8-0.1,2.4-0.2
		c0.6-0.2,1.1-0.4,1.7-0.7c0.5-0.3,1-0.7,1.5-1.3c0.5-0.5,0.8-1.2,1.1-1.9c0.3-0.7,0.4-1.5,0.4-2.3c0-1.2-0.3-2.1-0.9-2.9
		C-1186-788-1186.7-788.6-1187.5-788.9z M-1186.6-781.8c-0.2,0.7-0.5,1.2-0.8,1.6c-0.4,0.4-0.7,0.7-1.1,1c-0.4,0.2-0.8,0.4-1.4,0.5
		c-0.5,0.1-1.1,0.2-1.8,0.2c-0.7,0-1.3-0.1-1.9-0.2c0-0.6,0-1.1,0-1.5l0-2.5v-3.3l0-1.2c0-0.7,0-1.2,0-1.4c0.7-0.1,1.4-0.2,2.1-0.2
		c1.3,0,2.3,0.2,3,0.6s1.3,0.9,1.6,1.7s0.5,1.6,0.5,2.6C-1186.3-783.1-1186.4-782.5-1186.6-781.8z M-1165.7-779.5
		c-0.1,0.3-0.1,0.5-0.2,0.7c-0.3,0.1-0.5,0.2-0.8,0.2s-0.8,0.1-1.5,0.1c-1,0-1.9,0-2.6-0.1c0-0.5,0-1.3,0-2.3c0-1.1,0-1.9,0-2.4
		c0.7,0,1.2,0,1.6,0c0.9,0,1.5,0,1.8,0.1c0.2,0,0.3,0.1,0.4,0.2c0.1,0.1,0.1,0.4,0.1,0.8l0,0.6h0.6l0-1.9l0-1.7v-0.2h-0.5l0,0.6
		c0,0.4-0.1,0.6-0.1,0.7s-0.2,0.1-0.3,0.1c-0.5,0.1-1,0.1-1.7,0.1c-0.5,0-1.1,0-1.8-0.1l0-2.8c0-0.5,0-1.1,0-1.7c0.2,0,0.5,0,1-0.1
		c0.5,0,0.7,0,0.9,0c0.6,0,1.2,0,1.8,0.1c0.4,0,0.7,0.1,1,0.3c0.1,0.5,0.1,1,0.1,1.5h0.5c0.1-1.1,0.1-1.7,0.1-1.7
		c0-0.2,0.1-0.5,0.2-0.8c-0.5-0.1-1-0.1-1.5-0.1c-0.5,0-1.4,0-2.6,0l-2.5,0l-2.3,0v0.5c0.7,0,1,0,1.2,0.1c0.1,0,0.2,0.1,0.3,0.2
		c0.1,0.1,0.1,0.4,0.1,0.9c0,0.7,0,1.4,0,2.2v4.2c0,0.5,0,1.1,0,1.9c0,0.5-0.1,0.8-0.1,0.9c0,0.1-0.1,0.1-0.2,0.2
		c-0.2,0.1-0.6,0.1-1.1,0.1v0.5c1.4,0,2.1-0.1,2.1-0.1l4.9,0.1c0.7,0,1.2,0,1.7-0.1c0-0.7,0.1-1.6,0.2-2.7h-0.5
		C-1165.5-780.4-1165.6-780-1165.7-779.5z M-1144.6-789.4v0.5c0.6,0,0.9,0,1.1,0.1c0.1,0,0.1,0.1,0.2,0.2c0,0.1,0.1,0.4,0.1,0.8
		c0,0.7,0.1,1.3,0.1,1.9v6c-0.2-0.2-0.5-0.5-0.8-0.9c-0.5-0.5-1.1-1.3-1.9-2.2l-2.4-3l-1.7-2.1c-0.2-0.3-0.6-0.7-1-1.3
		c-0.4,0-0.8,0-1.2,0c-0.2,0-0.8,0-1.8,0v0.5c0.4,0,0.7,0,0.9,0c0.1,0,0.2,0.1,0.3,0.2c0.2,0.1,0.3,0.3,0.3,0.4c0,0.1,0,0.2,0,0.4
		v6.7c0,0.5,0,1.1,0,1.9c0,0.5-0.1,0.8-0.1,0.9c0,0.1-0.1,0.1-0.2,0.2c-0.2,0.1-0.6,0.1-1.1,0.1v0.5c0.7,0,1.4-0.1,2.1-0.1
		c0.6,0,1.1,0,1.6,0.1v-0.5c-0.6,0-0.9,0-1.1-0.1c-0.1,0-0.1-0.1-0.2-0.2c0-0.1-0.1-0.4-0.1-0.8c0-0.7-0.1-1.4-0.1-1.9v-6.4l5.8,7
		l1.1,1.4c0.2,0.3,0.5,0.7,1,1.2c0.2,0.2,0.3,0.3,0.3,0.3c0,0,0.1,0,0.1,0l0.2,0l0.8,0.2c0-2.2,0-3.7,0-4.5v-3.9c0-0.5,0-1.1,0-1.9
		c0-0.5,0.1-0.8,0.1-0.9c0-0.1,0.1-0.1,0.2-0.2c0.2-0.1,0.6-0.1,1.1-0.1v-0.5c-0.5,0-1.1,0-1.7,0
		C-1143.4-789.4-1144-789.4-1144.6-789.4z M-1127.2-787.8c0.4-0.4,0.9-0.7,1.4-0.9c0.5-0.2,1.2-0.3,2-0.3c1,0,1.8,0.1,2.4,0.4
		c0.5,0.3,0.8,0.7,0.9,1.2l0,1h0.5c0-0.6,0.1-1.2,0.2-1.6c0.1-0.3,0.2-0.6,0.3-0.9c-0.1,0-0.5-0.1-1.1-0.3c-0.6-0.2-1.1-0.3-1.5-0.3
		s-0.9-0.1-1.4-0.1c-2.1,0-3.8,0.6-5,1.7s-1.8,2.6-1.8,4.3c0,0.7,0.1,1.3,0.3,1.9c0.2,0.6,0.4,1.1,0.8,1.6c0.3,0.5,0.8,0.9,1.3,1.3
		c0.5,0.4,1.2,0.7,1.9,0.9c0.7,0.2,1.5,0.3,2.4,0.3c0.7,0,1.4-0.1,2-0.2c0.6-0.1,1.2-0.4,1.9-0.7l0.3-0.8l-0.1-0.2
		c-0.4,0.3-0.9,0.5-1.3,0.7c-0.6,0.2-1.3,0.3-2.1,0.3c-1.7,0-3-0.5-4-1.5s-1.5-2.3-1.5-4c0-0.9,0.1-1.7,0.4-2.4
		C-1128-786.9-1127.7-787.4-1127.2-787.8z M-1108.7-789.4v0.5c0.7,0,1,0,1.2,0.1c0.1,0,0.2,0.1,0.3,0.2s0.1,0.4,0.1,0.9
		c0,0.7,0,1.4,0,2.2v3.8c0,1.4,0,2.2,0,2.3c0,0.4-0.1,0.7-0.1,0.8c-0.1,0.1-0.2,0.1-0.3,0.2c-0.1,0-0.5,0.1-1.2,0.1v0.5l2.5-0.1
		c0.4,0,1.1,0,2.3,0.1v-0.5c-0.7,0-1,0-1.2-0.1c-0.1,0-0.2-0.1-0.3-0.2s-0.1-0.4-0.1-0.9c0-0.7,0-1.4,0-2.2v-3.8c0-1.4,0-2.2,0-2.3
		c0-0.4,0.1-0.7,0.1-0.8c0.1-0.1,0.2-0.1,0.3-0.2c0.1,0,0.5-0.1,1.2-0.1v-0.5c-1.1,0-1.9,0.1-2.4,0.1
		C-1106.9-789.3-1107.7-789.4-1108.7-789.4z M-1081.8-778.8c-0.2-0.3-0.6-1.2-1.1-2.5l-3.5-8.2h-0.5c-0.7,1.8-1.2,2.9-1.4,3.4
		l-2.1,4.6c-0.6,1.3-1,2.1-1.1,2.3c-0.2,0.4-0.3,0.6-0.4,0.7s-0.2,0.1-0.3,0.2c-0.1,0-0.4,0-0.8,0.1v0.6c0.6,0,1.2-0.1,1.7-0.1
		c0.5,0,1.2,0,2.1,0.1v-0.6c-0.5,0-0.9,0-1.1-0.1c-0.1,0-0.2-0.1-0.3-0.1c0,0-0.1-0.1-0.1-0.2c0-0.2,0.1-0.5,0.2-0.8l0.9-2.1h4.8
		l1,2.5c0.1,0.2,0.1,0.3,0.1,0.5c0,0.1,0,0.1-0.1,0.2s-0.1,0.1-0.3,0.1c-0.1,0-0.5,0-1.1,0.1v0.6l2.6-0.1c0.3,0,0.9,0,1.8,0.1v-0.6
		c-0.4,0-0.7,0-0.8-0.1S-1081.7-778.6-1081.8-778.8z M-1089.2-782.4l2.1-4.9l2,4.9H-1089.2z M-1061.4-780.7l-0.3,1.4
		c-0.1,0.2-0.1,0.4-0.2,0.6c-0.6,0.2-1.7,0.3-3.2,0.3c-0.6,0-1.2,0-1.9-0.1c0-0.4,0-0.8,0-1.4v-5.5c0-1.4,0-2.2,0-2.3
		c0-0.4,0.1-0.7,0.1-0.8c0.1-0.1,0.2-0.1,0.3-0.2c0.1,0,0.5-0.1,1.2-0.1v-0.5c-1.2,0-2,0.1-2.4,0.1c-0.3,0-1.1,0-2.5-0.1v0.5
		c0.7,0,1,0,1.2,0.1c0.1,0,0.2,0.1,0.3,0.2c0.1,0.1,0.1,0.4,0.1,0.9c0,0.7,0,1.4,0,2.2v4.4c0,0.1,0,0.6,0,1.3c0,0.5,0,0.8-0.1,1
		c0,0.1-0.1,0.1-0.1,0.2c-0.1,0.1-0.3,0.2-0.6,0.4v0.4c0.5,0,1.1-0.1,1.6-0.1l4.9,0.1c0.6,0,1,0,1.3,0c0.1,0,0.3,0,0.5-0.1
		c0.1-1.1,0.2-2.1,0.4-2.9H-1061.4z"/>
	<path fill="#E6E6E6" d="M-1126.6-42h-79.8c-1.4,0-2.6,1.2-2.6,2.6v0.1c0,1.4,1.2,2.6,2.6,2.6h3.2v9.7h73.3v-9.7h3.2
		c1.4,0,2.6-1.2,2.6-2.6v-0.1C-1124-40.8-1125.2-42-1126.6-42z M-1126.7-21.7h-79.7c-1.5,0-2.7,1.2-2.7,2.7c0,1.5,1.2,2.7,2.7,2.7
		h3.2v55.7h17.6V21.8c0-10.5,8.5-19,19-19s19,8.5,19,19v17.5h17.6v-55.7h3.2c1.5,0,2.7-1.2,2.7-2.7
		C-1124-20.5-1125.2-21.7-1126.7-21.7z"/>
	<path fill="#E6E6E6" d="M-1275.5,61.5v2c2.1,0,3.3,0.2,3.7,0.5c0.2,0.2,0.4,0.5,0.4,1.1c0.2,1.5,0.3,6.4,0.3,14.8v5.4
		c-2.2-2.2-4.9-5.3-8.2-9.3c-4.6-5.5-8.5-10.3-11.7-14.5l-2.2,0.1l-3.4,0.1c-0.9,0-2.4-0.1-4.4-0.2v2c1.6,0.1,2.6,0.2,3,0.3
		c0.3,0.1,0.6,0.2,0.7,0.4c0.1,0.2,0.3,0.4,0.3,0.8c0.1,0.3,0.1,1.1,0.1,2.2l0.1,6.8v7.5c0,2.1,0,3.8-0.1,5.1
		c-0.1,2.3-0.2,3.7-0.3,4.3c-0.1,0.4-0.2,0.7-0.3,0.9s-0.3,0.2-0.4,0.3c-0.3,0.1-1.3,0.2-3.2,0.3v2c2.6-0.1,4.7-0.2,6.2-0.2
		c0.4,0,2.1,0,5.1,0.1v-1.9c-0.2,0-0.4,0-0.5,0c-0.5,0-1.2-0.1-2.2-0.2c-0.4,0-0.6-0.1-0.8-0.2s-0.3-0.3-0.3-0.5
		c-0.1-0.4-0.2-1.5-0.3-3.3c-0.1-2.6-0.2-5.1-0.2-7.6V68.9c9.3,11.3,16.4,19.8,21.5,25.4c1.4,0.2,2.7,0.4,4,0.6l0.3-0.2
		c-0.2-2.2-0.3-8.5-0.3-18.9c0-1.3,0-3.4,0.1-6.2s0.2-4.6,0.5-5.4c0-0.2,0.1-0.3,0.3-0.4c0.4-0.2,1.5-0.4,3.4-0.4v-2
		c-2.4,0.1-4.4,0.2-6,0.2C-1271.9,61.7-1273.6,61.7-1275.5,61.5z M-1239.6,76.1c-0.5-0.8-1.2-1.7-2.1-2.5c-0.9-0.8-2-1.4-3.2-1.8
		c-1.6-0.6-3.4-0.8-5.4-0.8c-2,0-3.9,0.3-5.5,0.9c-1.3,0.5-2.5,1.2-3.7,2.2s-2,2.3-2.6,3.8c-0.6,1.5-0.9,3.2-0.9,5.2
		c0,2.6,0.5,4.8,1.5,6.5c1,1.7,2.4,3.1,4.2,3.9c1.8,0.9,3.9,1.3,6.3,1.3c2.3,0,4.3-0.4,6.1-1.1c1.3-0.5,2.4-1.3,3.5-2.3
		c1-1,1.8-2.2,2.3-3.5c0.7-1.8,1.1-3.7,1.1-5.7c0-1.2-0.1-2.3-0.4-3.3C-1238.7,77.9-1239.1,77-1239.6,76.1z M-1244.1,88.7
		c-0.6,1.6-1.5,2.7-2.6,3.3c-1.1,0.7-2.3,1-3.7,1c-1.5,0-2.8-0.3-3.9-1c-1.1-0.7-2-1.9-2.7-3.5c-0.7-1.7-1-3.8-1-6.3
		c0-1.8,0.3-3.4,0.8-4.9c0.5-1.5,1.3-2.6,2.4-3.3s2.5-1.1,4.1-1.1c1.4,0,2.5,0.2,3.4,0.7c0.8,0.5,1.6,1.2,2.2,2
		c0.6,0.9,1.1,2,1.4,3.2c0.3,1.3,0.5,2.7,0.5,4.2C-1243.2,85.3-1243.5,87.2-1244.1,88.7z M-1213.6,72.8v-1.4l-3.5,0.1l-4.2-0.1v1.4
		c0.5,0,1.1,0,1.8,0.1c0.3,0,0.5,0,0.6,0.1c0.1,0,0.2,0.1,0.2,0.2s0.1,0.2,0.1,0.4c0,0.1,0,0.3,0,0.4c-0.1,0.4-0.4,1.3-0.9,2.6
		c-0.7,1.9-1.1,2.9-1.2,3.1l-3.6,9l-4.1-10.1c0-0.1-0.1-0.2-0.1-0.3s-0.2-0.6-0.7-1.6c-0.7-1.7-1.1-2.8-1.1-3.1c0-0.2,0-0.3,0.1-0.4
		c0.1-0.1,0.3-0.2,0.5-0.2c0.4-0.1,1.1-0.2,2-0.2v-1.4l-5.9,0.1c-0.6,0-2.2,0-4.8-0.1v1.4c1,0,1.7,0.1,2,0.3c0.2,0.1,0.5,0.6,1,1.4
		c0.4,0.8,1.5,3.4,3.4,7.8l2.3,5.6c0.9,2.1,1.7,4.2,2.7,6.5h2.5c0.7-1.9,1.9-5.1,3.8-9.6l2.2-5.3l1.2-2.7c0.9-2.3,1.6-3.5,1.9-3.7
		C-1215.3,73-1214.7,72.9-1213.6,72.8z M-1194.2,92.8c-0.1,0-0.2-0.1-0.3-0.2c-0.1-0.1-0.2-0.2-0.3-0.4l-0.7-1.5l-1-2.2l-7.3-17.1
		h-2.3l-1.4,3.7l-4.3,10.6c-0.8,2-1.4,3.3-1.6,4c-0.6,1.4-1,2.3-1.1,2.5c-0.1,0.2-0.2,0.4-0.4,0.5c-0.1,0.1-0.3,0.2-0.4,0.2
		c-0.2,0-0.7,0.1-1.6,0.2v1.4l3.8-0.1l3.8,0.1V93c-1.3,0-2.1-0.1-2.3-0.3c-0.2-0.1-0.3-0.3-0.3-0.6c0-0.4,0.3-1.3,0.8-2.8l0.7-2h8.5
		l1.4,3.6c0.3,0.6,0.4,1.1,0.4,1.3c0,0.2-0.1,0.4-0.3,0.5s-0.9,0.2-2.2,0.2v1.4l5.8-0.1l4.6,0.1V93c-0.3,0-0.6-0.1-0.7-0.1
		C-1193.7,92.9-1194.1,92.8-1194.2,92.8z M-1206.3,85.5c-1.3,0-2.5,0-3.5,0l3.4-8.5l3.5,8.5C-1203.9,85.5-1205,85.5-1206.3,85.5z
		 M-1160.2,61.5l-11.3,0.2l-8.3-0.2v2c1.5,0.1,2.4,0.2,2.8,0.3s0.6,0.2,0.7,0.2s0.2,0.2,0.2,0.4c0.1,0.5,0.2,1.4,0.3,2.6
		c0.1,4.2,0.2,6.3,0.2,6.6v9.7c0,0.8,0,2.2-0.1,4.1s-0.1,3-0.2,3.4c-0.1,0.6-0.2,1-0.3,1.2c-0.1,0.1-0.2,0.2-0.4,0.3
		c-0.3,0.1-1.3,0.2-3.1,0.2v1.9c2.9-0.1,5-0.2,6.3-0.2l9.2,0.2v-1.9c-2.2-0.2-3.4-0.3-3.7-0.4s-0.5-0.2-0.6-0.4
		c-0.2-0.2-0.3-1.1-0.4-2.6s-0.1-4.1-0.1-7.8v-2.6c0.9,0,1.5,0,1.9,0c2.5,0,4.3,0.1,5.5,0.3c0.5,0.1,0.7,0.2,0.8,0.4
		c0.2,0.4,0.4,1.6,0.4,3.5h2.1V72.8h-2.1c0,1.4-0.1,2.3-0.3,2.7c-0.1,0.3-0.2,0.5-0.4,0.5c-0.5,0.2-1.8,0.3-3.8,0.3
		c-0.7,0-2-0.1-4-0.2v-3.3c0-4.1,0.1-6.9,0.3-8.4c0.4,0,1.3-0.1,2.5-0.1s1.9-0.1,2.2-0.1c1.4,0,2.6,0.1,3.6,0.3s1.7,0.4,2,0.5
		c0.1,0,0.2,0.1,0.2,0.2c0.1,0.1,0.1,0.6,0.1,1.2c0.1,1.3,0.1,2.1,0.1,2.5h1.9c0-1,0.1-2.2,0.2-3.6s0.3-2.5,0.4-3.4l-0.2-0.3
		C-1157.2,61.6-1158.6,61.5-1160.2,61.5z M-1134.3,92.4c-0.2-0.2-0.7-0.8-1.5-1.9c-0.1-0.1-0.4-0.6-1.1-1.6l-2.5-3.8
		c-0.1-0.1-0.1-0.2-0.2-0.3s-0.3-0.4-0.6-0.9c-0.3-0.5-0.7-1-0.9-1.5c1.7-0.6,3-1.5,3.8-2.6c0.8-1.1,1.2-2.3,1.2-3.6
		c0-1.1-0.3-2.1-0.9-2.8s-1.3-1.3-2.2-1.5c-0.9-0.2-2.1-0.4-3.9-0.4c-0.9,0-2,0-3.4,0.1c-0.8,0-1.8,0.1-3,0.1c-1.3,0-2.4,0-3.1,0
		c-1.5-0.1-2.4-0.1-2.6-0.1v1.3c1.3,0.1,2.2,0.2,2.4,0.3c0.1,0.1,0.2,0.2,0.2,0.3c0.1,0.3,0.2,1.1,0.2,2.5l0.1,3.5v6.1l-0.1,4.8
		c0,0.9-0.1,1.5-0.2,1.9c0,0.2-0.1,0.4-0.1,0.5c-0.1,0.1-0.2,0.1-0.3,0.2c-0.2,0.1-1,0.1-2.2,0.2v1.4c1.5-0.1,3-0.1,4.7-0.1
		c1.9,0,3.8,0,5.7,0.1v-1.4c-1.1,0-1.7-0.1-1.9-0.1s-0.4-0.1-0.5-0.2c-0.1-0.1-0.2-0.2-0.2-0.2c-0.1-0.2-0.1-0.6-0.2-1.2
		c0-0.3-0.1-1.6-0.1-3.8c0-1.8-0.1-3.6-0.1-5.2c0-1,0-3.1,0.1-6.2c0-1.4,0.1-2.3,0.1-2.7c0.5-0.1,1-0.1,1.6-0.1c1.2,0,2,0.1,2.5,0.2
		c0.7,0.3,1.3,0.7,1.8,1.4c0.5,0.7,0.7,1.5,0.7,2.5c0,1-0.2,1.9-0.7,2.7c-0.5,0.8-1,1.4-1.7,1.7c-0.7,0.3-1.7,0.4-3,0.4l-0.2,0.5
		c0.3,0.2,0.7,0.6,1,1.1c0.7,1,1.6,2.3,2.6,3.9l3.5,5.8c0.2,0.4,0.3,0.7,0.4,0.9c0.9,0,1.7-0.1,2.6-0.1c0.8,0,2,0,3.7,0.1v-1.4
		c-0.5,0-0.9-0.1-1-0.1C-1133.9,92.7-1134.1,92.5-1134.3,92.4z M-1108.5,92.8c-0.1,0-0.2-0.1-0.3-0.2c-0.1-0.1-0.2-0.2-0.3-0.4
		l-0.7-1.5l-1-2.2l-7.3-17.1h-2.3l-1.4,3.7l-4.3,10.6c-0.8,2-1.4,3.3-1.6,4c-0.6,1.4-1,2.3-1.1,2.5c-0.1,0.2-0.2,0.4-0.4,0.5
		c-0.1,0.1-0.3,0.2-0.4,0.2c-0.2,0-0.7,0.1-1.6,0.2v1.4l3.8-0.1l3.8,0.1V93c-1.3,0-2.1-0.1-2.3-0.3c-0.2-0.1-0.3-0.3-0.3-0.6
		c0-0.4,0.3-1.3,0.8-2.8l0.7-2h8.5l1.4,3.6c0.2,0.6,0.4,1.1,0.4,1.3c0,0.2-0.1,0.4-0.3,0.5c-0.2,0.1-0.9,0.2-2.2,0.2v1.4l5.8-0.1
		l4.6,0.1V93c-0.3,0-0.6-0.1-0.7-0.1C-1108.1,92.9-1108.4,92.8-1108.5,92.8z M-1120.6,85.5c-1.3,0-2.5,0-3.5,0l3.4-8.5l3.5,8.5
		C-1118.2,85.5-1119.4,85.5-1120.6,85.5z M-1087.3,71.4v1.4c1.5,0,2.3,0.1,2.6,0.3c0.2,0.1,0.2,0.4,0.3,0.8c0.1,1,0.2,4.5,0.2,10.4
		v3.8c-1.5-1.6-3.4-3.7-5.7-6.5c-3.2-3.8-5.9-7.2-8.2-10.2l-1.5,0.1l-2.4,0.1c-0.7,0-1.7,0-3.1-0.1v1.4c1.2,0.1,1.8,0.1,2.1,0.2
		c0.2,0.1,0.4,0.2,0.5,0.3c0.1,0.1,0.2,0.3,0.2,0.5c0.1,0.2,0.1,0.8,0.1,1.6l0.1,4.8v5.3c0,1.5,0,2.6-0.1,3.5
		c-0.1,1.6-0.2,2.6-0.2,3c-0.1,0.3-0.1,0.5-0.2,0.6s-0.2,0.2-0.3,0.2c-0.2,0.1-0.9,0.1-2.2,0.2v1.4c1.8-0.1,3.3-0.1,4.3-0.1
		c0.3,0,1.5,0,3.5,0v-1.3c-0.2,0-0.3,0-0.3,0c-0.3,0-0.8,0-1.6-0.1c-0.3,0-0.4-0.1-0.5-0.2s-0.2-0.2-0.2-0.3c-0.1-0.3-0.2-1-0.2-2.3
		c-0.1-1.8-0.1-3.6-0.1-5.3v-8.2c6.5,7.9,11.5,13.8,15,17.8c1,0.1,1.9,0.3,2.8,0.4l0.2-0.1c-0.1-1.6-0.2-6-0.2-13.2
		c0-0.9,0-2.4,0.1-4.3c0-2,0.2-3.2,0.3-3.7c0-0.1,0.1-0.2,0.2-0.2c0.3-0.2,1-0.3,2.4-0.3v-1.4c-1.7,0.1-3.1,0.1-4.2,0.1
		C-1084.7,71.5-1086,71.5-1087.3,71.4z M-1064.9,72.9c1.4,0,2.6,0.2,3.5,0.6s1.7,0.9,2.5,1.7c0.1,0.7,0.1,1.7,0.2,2.9h1.3
		c0-1,0.1-2.2,0.3-3.4c0.1-0.8,0.2-1.4,0.4-1.9l-0.1-0.2c-1.6-0.6-2.9-0.9-4.1-1.2s-2.5-0.3-4-0.3c-4.3,0-7.6,1.1-10,3.3
		c-2.4,2.2-3.5,5-3.5,8.5c0,1.9,0.4,3.7,1.1,5.3c0.5,1.1,1.2,2.2,2.1,3.2c0.9,1,2,1.8,3.2,2.4c1.3,0.6,2.8,1,4.5,1.3l-1.3,2.9
		l0.4,0.3c0.3-0.1,0.6-0.2,0.9-0.2c0.4,0,0.8,0.1,1.1,0.4c0.3,0.2,0.4,0.5,0.4,0.8c0,0.4-0.1,0.6-0.4,0.9s-0.7,0.4-1.2,0.4
		c-0.6,0-1.4-0.1-2.2-0.4l-0.6,1.3c1,0.4,2.1,0.6,3.3,0.6c1.6,0,2.7-0.3,3.5-0.9c0.8-0.6,1.1-1.3,1.1-2.1c0-0.7-0.3-1.2-0.8-1.7
		c-0.5-0.5-1.3-0.7-2.4-0.7c-0.3,0-0.6,0-1,0.1l0.7-1.7h0.8c1.6,0,3-0.1,4.1-0.4c1.1-0.3,2.3-0.8,3.7-1.5l0.8-1.7l-0.4-0.4
		c-1.2,0.6-2.3,1-3.2,1.3c-1,0.3-2.1,0.4-3.2,0.4c-1.7,0-3.1-0.3-4.3-0.8c-0.9-0.4-1.7-1-2.6-1.9c-0.9-0.9-1.6-1.9-2.1-3.3
		s-0.8-2.8-0.8-4.6c0-2.9,0.8-5.2,2.3-6.8C-1069.5,73.7-1067.4,72.9-1064.9,72.9z M-1031.6,92.9c-0.5,0-0.8-0.1-1-0.1
		c-0.1,0-0.2-0.1-0.3-0.2c-0.1-0.1-0.2-0.2-0.3-0.4l-0.7-1.5l-1-2.2l-7.3-17.1h-2.3l-1.4,3.7l-4.3,10.6c-0.8,2-1.4,3.3-1.6,4
		c-0.6,1.4-1,2.3-1.1,2.5c-0.1,0.2-0.2,0.4-0.4,0.5c-0.1,0.1-0.3,0.2-0.4,0.2c-0.2,0-0.7,0.1-1.6,0.2v1.4l3.8-0.1l3.8,0.1V93
		c-1.3,0-2.1-0.1-2.3-0.3c-0.2-0.1-0.3-0.3-0.3-0.6c0-0.4,0.3-1.3,0.8-2.8l0.7-2h8.5l1.4,3.6c0.3,0.6,0.4,1.1,0.4,1.3
		c0,0.2-0.1,0.4-0.3,0.5s-0.9,0.2-2.2,0.2v1.4l5.8-0.1l4.6,0.1V93C-1031.2,92.9-1031.5,92.9-1031.6,92.9z M-1044.7,85.5
		c-1.3,0-2.5,0-3.5,0l3.4-8.5l3.5,8.5C-1042.3,85.5-1043.5,85.5-1044.7,85.5z"/>
	<path fill="#375B80" d="M-1262.3,130.7c-0.1-0.1-0.4-0.5-1-1.3l-2.1-2.7c-0.5-0.7-0.8-1.1-1-1.3c0.7-0.2,1.4-0.4,1.8-0.7
		s0.8-0.7,1.1-1.1s0.4-0.9,0.4-1.4c0-0.5-0.1-0.9-0.4-1.4c-0.3-0.4-0.6-0.7-1.1-0.9c-0.5-0.2-1.2-0.3-2.3-0.3c-0.1,0-0.6,0-1.5,0
		c-0.7,0-1.1,0-1.5,0l-1.6,0c-0.4,0-0.8,0-1,0v0.5c0.7,0,1,0,1.2,0.1c0.1,0,0.2,0.1,0.3,0.2s0.1,0.4,0.1,0.9c0,0.7,0,1.4,0,2.2v3.8
		c0,1.4,0,2.2,0,2.3c0,0.4-0.1,0.7-0.1,0.8c-0.1,0.1-0.2,0.1-0.3,0.2c-0.1,0-0.5,0.1-1.2,0.1v0.5c1.2,0,2.1-0.1,2.6-0.1
		c0.7,0,1.4,0,2.1,0.1v-0.5c-0.6,0-1,0-1.2-0.1c-0.1,0-0.2-0.1-0.3-0.2c-0.1-0.1-0.1-0.4-0.1-0.9c0-0.7,0-1.4,0-2.2v-3.6
		c0-1.5,0.1-2.3,0.1-2.4c0-0.3,0-0.5,0-0.8c0.5-0.2,1.1-0.3,1.7-0.3c0.9,0,1.6,0.2,2,0.6s0.7,0.9,0.7,1.6c0,0.8-0.3,1.4-0.8,1.9
		c-0.5,0.5-1.3,0.7-2.3,0.7c-0.1,0-0.4,0-0.6,0l-0.1,0.2c0.5,0.6,1.1,1.3,1.6,2c0.4,0.4,0.8,1,1.2,1.7c0.8,1.2,1.4,2,1.8,2.4
		c0.5,0,0.9-0.1,1.2-0.1c0.3,0,0.7,0,1.1,0.1v-0.5c-0.3,0-0.5,0-0.5,0C-1262.2,130.8-1262.2,130.7-1262.3,130.7z M-1242.6,129.6
		c-0.1,0.3-0.1,0.5-0.2,0.7c-0.3,0.1-0.5,0.2-0.8,0.2s-0.8,0.1-1.5,0.1c-1,0-1.9,0-2.6-0.1c0-0.5,0-1.3,0-2.3c0-1.1,0-1.9,0-2.4
		c0.7,0,1.2,0,1.6,0c0.9,0,1.5,0,1.8,0.1c0.2,0,0.3,0.1,0.4,0.2c0.1,0.1,0.1,0.4,0.1,0.8l0,0.6h0.6l0-1.9l0-1.7v-0.2h-0.5l0,0.6
		c0,0.4-0.1,0.6-0.1,0.7s-0.2,0.1-0.3,0.1c-0.5,0.1-1,0.1-1.7,0.1c-0.5,0-1.1,0-1.8-0.1l0-2.8c0-0.5,0-1.1,0-1.7c0.2,0,0.5,0,1-0.1
		c0.5,0,0.7,0,0.9,0c0.6,0,1.2,0,1.8,0.1c0.4,0,0.7,0.1,1,0.3c0.1,0.5,0.1,1,0.1,1.5h0.5c0.1-1.1,0.1-1.7,0.1-1.7
		c0-0.2,0.1-0.5,0.2-0.8c-0.5-0.1-1-0.1-1.5-0.1c-0.5,0-1.4,0-2.6,0l-2.5,0l-2.3,0v0.5c0.7,0,1,0,1.2,0.1c0.1,0,0.2,0.1,0.3,0.2
		c0.1,0.1,0.1,0.4,0.1,0.9c0,0.7,0,1.4,0,2.2v4.2c0,0.5,0,1.1,0,1.9c0,0.5-0.1,0.8-0.1,0.9c0,0.1-0.1,0.1-0.2,0.2
		c-0.2,0.1-0.6,0.1-1.1,0.1v0.5c1.4,0,2.1-0.1,2.1-0.1l4.9,0.1c0.7,0,1.2,0,1.7-0.1c0-0.7,0.1-1.6,0.2-2.7h-0.5
		C-1242.4,128.7-1242.5,129.1-1242.6,129.6z M-1223.7,125.5c-0.2-0.2-0.6-0.4-1.1-0.5c-0.5-0.1-1.2-0.2-1.8-0.3
		c-0.7-0.1-1.2-0.2-1.5-0.3c-0.4-0.2-0.7-0.4-0.9-0.6c-0.2-0.3-0.3-0.6-0.3-1.1c0-0.8,0.2-1.4,0.7-1.9s1.1-0.7,1.9-0.7
		c0.6,0,1.2,0.2,1.8,0.5c0.2,0.2,0.4,0.3,0.6,0.5c0,0.1,0.1,0.5,0.1,1.4h0.5c0-0.6,0-1,0.1-1.3s0.1-0.6,0.2-1
		c-0.5-0.2-1-0.4-1.5-0.5c-0.5-0.1-1.1-0.2-1.5-0.2c-0.8,0-1.5,0.2-2.1,0.5c-0.7,0.3-1.2,0.8-1.5,1.3c-0.3,0.6-0.5,1.2-0.5,1.8
		c0,0.4,0.1,0.9,0.2,1.2c0.2,0.4,0.4,0.7,0.7,0.9c0.3,0.2,0.7,0.4,1.3,0.6c0.4,0.1,0.9,0.2,1.6,0.3c0.6,0.1,1,0.1,1.2,0.2
		c0.3,0.1,0.6,0.2,0.8,0.3c0.2,0.2,0.4,0.4,0.5,0.6c0.1,0.3,0.2,0.6,0.2,0.9c0,0.5-0.1,0.9-0.3,1.3s-0.6,0.7-1,1
		c-0.5,0.3-1,0.4-1.5,0.4c-0.4,0-0.8-0.1-1.2-0.2s-0.7-0.3-1-0.4c-0.2-0.2-0.4-0.3-0.5-0.5s-0.1-0.6-0.1-1.4h-0.5
		c0,1.2-0.1,2-0.2,2.5c0.9,0.4,1.9,0.6,2.9,0.6c1.4,0,2.6-0.4,3.5-1.2c0.9-0.8,1.4-1.8,1.4-2.8c0-0.5-0.1-0.9-0.2-1.2
		C-1223.2,126-1223.4,125.7-1223.7,125.5z M-1212.3,119.7v0.5c0.7,0,1,0,1.2,0.1c0.1,0,0.2,0.1,0.3,0.2c0.1,0.1,0.1,0.4,0.1,0.9
		c0,0.7,0,1.4,0,2.2v3.8c0,1.4,0,2.2,0,2.3c0,0.4-0.1,0.7-0.1,0.8c-0.1,0.1-0.2,0.1-0.3,0.2c-0.1,0-0.5,0.1-1.2,0.1v0.5l2.5-0.1
		c0.4,0,1.1,0,2.3,0.1v-0.5c-0.7,0-1,0-1.2-0.1c-0.1,0-0.2-0.1-0.3-0.2c-0.1-0.1-0.1-0.4-0.1-0.9c0-0.7,0-1.4,0-2.2v-3.8
		c0-1.4,0-2.2,0-2.3c0-0.4,0.1-0.7,0.1-0.8c0.1-0.1,0.2-0.1,0.3-0.2c0.1,0,0.5-0.1,1.2-0.1v-0.5c-1.1,0-1.9,0.1-2.4,0.1
		C-1210.4,119.7-1211.2,119.7-1212.3,119.7z M-1187.5,120.2c-0.8-0.3-1.9-0.5-3.2-0.5c-0.4,0-1.1,0-1.9,0c-0.8,0-1.5,0-1.9,0
		c-0.6,0-1.3,0-2.1,0v0.5c0.6,0,0.9,0,1.1,0.1c0.1,0,0.1,0.1,0.2,0.2c0.1,0.1,0.1,0.4,0.1,0.8c0,0.7,0,1.3,0,1.9v3.3
		c0,0.4,0,1.2-0.1,2.3c0,0.7,0,1.2-0.1,1.5c-0.2,0.1-0.5,0.3-0.8,0.5v0.4c0.8,0,1.4-0.1,1.8-0.1c0.2,0,0.7,0,1.5,0c0.6,0,1,0,1.4,0
		c1,0,1.8-0.1,2.4-0.2c0.6-0.2,1.1-0.4,1.7-0.7c0.5-0.3,1-0.7,1.5-1.3c0.5-0.5,0.8-1.2,1.1-1.9c0.3-0.7,0.4-1.5,0.4-2.3
		c0-1.2-0.3-2.1-0.9-2.9C-1186,121.1-1186.7,120.5-1187.5,120.2z M-1186.6,127.3c-0.2,0.7-0.5,1.2-0.8,1.6c-0.4,0.4-0.7,0.7-1.1,1
		c-0.4,0.2-0.8,0.4-1.4,0.5c-0.5,0.1-1.1,0.2-1.8,0.2c-0.7,0-1.3-0.1-1.9-0.2c0-0.6,0-1.1,0-1.5l0-2.5v-3.3l0-1.2c0-0.7,0-1.2,0-1.4
		c0.7-0.1,1.4-0.2,2.1-0.2c1.3,0,2.3,0.2,3,0.6s1.3,0.9,1.6,1.7s0.5,1.6,0.5,2.6C-1186.3,126-1186.4,126.6-1186.6,127.3z
		 M-1165.7,129.6c-0.1,0.3-0.1,0.5-0.2,0.7c-0.3,0.1-0.5,0.2-0.8,0.2s-0.8,0.1-1.5,0.1c-1,0-1.9,0-2.6-0.1c0-0.5,0-1.3,0-2.3
		c0-1.1,0-1.9,0-2.4c0.7,0,1.2,0,1.6,0c0.9,0,1.5,0,1.8,0.1c0.2,0,0.3,0.1,0.4,0.2c0.1,0.1,0.1,0.4,0.1,0.8l0,0.6h0.6l0-1.9l0-1.7
		v-0.2h-0.5l0,0.6c0,0.4-0.1,0.6-0.1,0.7s-0.2,0.1-0.3,0.1c-0.5,0.1-1,0.1-1.7,0.1c-0.5,0-1.1,0-1.8-0.1l0-2.8c0-0.5,0-1.1,0-1.7
		c0.2,0,0.5,0,1-0.1c0.5,0,0.7,0,0.9,0c0.6,0,1.2,0,1.8,0.1c0.4,0,0.7,0.1,1,0.3c0.1,0.5,0.1,1,0.1,1.5h0.5c0.1-1.1,0.1-1.7,0.1-1.7
		c0-0.2,0.1-0.5,0.2-0.8c-0.5-0.1-1-0.1-1.5-0.1c-0.5,0-1.4,0-2.6,0l-2.5,0l-2.3,0v0.5c0.7,0,1,0,1.2,0.1c0.1,0,0.2,0.1,0.3,0.2
		c0.1,0.1,0.1,0.4,0.1,0.9c0,0.7,0,1.4,0,2.2v4.2c0,0.5,0,1.1,0,1.9c0,0.5-0.1,0.8-0.1,0.9c0,0.1-0.1,0.1-0.2,0.2
		c-0.2,0.1-0.6,0.1-1.1,0.1v0.5c1.4,0,2.1-0.1,2.1-0.1l4.9,0.1c0.7,0,1.2,0,1.7-0.1c0-0.7,0.1-1.6,0.2-2.7h-0.5
		C-1165.5,128.7-1165.6,129.1-1165.7,129.6z M-1144.6,119.7v0.5c0.6,0,0.9,0,1.1,0.1c0.1,0,0.1,0.1,0.2,0.2c0,0.1,0.1,0.4,0.1,0.8
		c0,0.7,0.1,1.3,0.1,1.9v6c-0.2-0.2-0.5-0.5-0.8-0.9c-0.5-0.5-1.1-1.3-1.9-2.2l-2.4-3l-1.7-2.1c-0.2-0.3-0.6-0.7-1-1.3
		c-0.4,0-0.8,0-1.2,0c-0.2,0-0.8,0-1.8,0v0.5c0.4,0,0.7,0,0.9,0c0.1,0,0.2,0.1,0.3,0.2c0.2,0.1,0.3,0.3,0.3,0.4c0,0.1,0,0.2,0,0.4
		v6.7c0,0.5,0,1.1,0,1.9c0,0.5-0.1,0.8-0.1,0.9c0,0.1-0.1,0.1-0.2,0.2c-0.2,0.1-0.6,0.1-1.1,0.1v0.5c0.7,0,1.4-0.1,2.1-0.1
		c0.6,0,1.1,0,1.6,0.1v-0.5c-0.6,0-0.9,0-1.1-0.1c-0.1,0-0.1-0.1-0.2-0.2c0-0.1-0.1-0.4-0.1-0.8c0-0.7-0.1-1.4-0.1-1.9v-6.4l5.8,7
		l1.1,1.4c0.2,0.3,0.5,0.7,1,1.2c0.2,0.2,0.3,0.3,0.3,0.3c0,0,0.1,0,0.1,0l0.2,0l0.8,0.2c0-2.2,0-3.7,0-4.5v-3.9c0-0.5,0-1.1,0-1.9
		c0-0.5,0.1-0.8,0.1-0.9c0-0.1,0.1-0.1,0.2-0.2c0.2-0.1,0.6-0.1,1.1-0.1v-0.5c-0.5,0-1.1,0-1.7,0
		C-1143.4,119.7-1144,119.7-1144.6,119.7z M-1127.2,121.3c0.4-0.4,0.9-0.7,1.4-0.9c0.5-0.2,1.2-0.3,2-0.3c1,0,1.8,0.1,2.4,0.4
		c0.5,0.3,0.8,0.7,0.9,1.2l0,1h0.5c0-0.6,0.1-1.2,0.2-1.6c0.1-0.3,0.2-0.6,0.3-0.9c-0.1,0-0.5-0.1-1.1-0.3c-0.6-0.2-1.1-0.3-1.5-0.3
		s-0.9-0.1-1.4-0.1c-2.1,0-3.8,0.6-5,1.7s-1.8,2.6-1.8,4.3c0,0.7,0.1,1.3,0.3,1.9c0.2,0.6,0.4,1.1,0.8,1.6c0.3,0.5,0.8,0.9,1.3,1.3
		c0.5,0.4,1.2,0.7,1.9,0.9c0.7,0.2,1.5,0.3,2.4,0.3c0.7,0,1.4-0.1,2-0.2c0.6-0.1,1.2-0.4,1.9-0.7l0.3-0.8l-0.1-0.2
		c-0.4,0.3-0.9,0.5-1.3,0.7c-0.6,0.2-1.3,0.3-2.1,0.3c-1.7,0-3-0.5-4-1.5s-1.5-2.3-1.5-4c0-0.9,0.1-1.7,0.4-2.4
		C-1128,122.2-1127.7,121.7-1127.2,121.3z M-1108.7,119.7v0.5c0.7,0,1,0,1.2,0.1c0.1,0,0.2,0.1,0.3,0.2s0.1,0.4,0.1,0.9
		c0,0.7,0,1.4,0,2.2v3.8c0,1.4,0,2.2,0,2.3c0,0.4-0.1,0.7-0.1,0.8c-0.1,0.1-0.2,0.1-0.3,0.2c-0.1,0-0.5,0.1-1.2,0.1v0.5l2.5-0.1
		c0.4,0,1.1,0,2.3,0.1v-0.5c-0.7,0-1,0-1.2-0.1c-0.1,0-0.2-0.1-0.3-0.2s-0.1-0.4-0.1-0.9c0-0.7,0-1.4,0-2.2v-3.8c0-1.4,0-2.2,0-2.3
		c0-0.4,0.1-0.7,0.1-0.8c0.1-0.1,0.2-0.1,0.3-0.2c0.1,0,0.5-0.1,1.2-0.1v-0.5c-1.1,0-1.9,0.1-2.4,0.1
		C-1106.9,119.7-1107.7,119.7-1108.7,119.7z M-1081.8,130.3c-0.2-0.3-0.6-1.2-1.1-2.5l-3.5-8.2h-0.5c-0.7,1.8-1.2,2.9-1.4,3.4
		l-2.1,4.6c-0.6,1.3-1,2.1-1.1,2.3c-0.2,0.4-0.3,0.6-0.4,0.7s-0.2,0.1-0.3,0.2c-0.1,0-0.4,0-0.8,0.1v0.6c0.6,0,1.2-0.1,1.7-0.1
		c0.5,0,1.2,0,2.1,0.1v-0.6c-0.5,0-0.9,0-1.1-0.1c-0.1,0-0.2-0.1-0.3-0.1c0,0-0.1-0.1-0.1-0.2c0-0.2,0.1-0.5,0.2-0.8l0.9-2.1h4.8
		l1,2.5c0.1,0.2,0.1,0.3,0.1,0.5c0,0.1,0,0.1-0.1,0.2s-0.1,0.1-0.3,0.1c-0.1,0-0.5,0-1.1,0.1v0.6l2.6-0.1c0.3,0,0.9,0,1.8,0.1v-0.6
		c-0.4,0-0.7,0-0.8-0.1S-1081.7,130.5-1081.8,130.3z M-1089.2,126.7l2.1-4.9l2,4.9H-1089.2z M-1061.4,128.4l-0.3,1.4
		c-0.1,0.2-0.1,0.4-0.2,0.6c-0.6,0.2-1.7,0.3-3.2,0.3c-0.6,0-1.2,0-1.9-0.1c0-0.4,0-0.8,0-1.4v-5.5c0-1.4,0-2.2,0-2.3
		c0-0.4,0.1-0.7,0.1-0.8c0.1-0.1,0.2-0.1,0.3-0.2c0.1,0,0.5-0.1,1.2-0.1v-0.5c-1.2,0-2,0.1-2.4,0.1c-0.3,0-1.1,0-2.5-0.1v0.5
		c0.7,0,1,0,1.2,0.1c0.1,0,0.2,0.1,0.3,0.2c0.1,0.1,0.1,0.4,0.1,0.9c0,0.7,0,1.4,0,2.2v4.4c0,0.1,0,0.6,0,1.3c0,0.5,0,0.8-0.1,1
		c0,0.1-0.1,0.1-0.1,0.2c-0.1,0.1-0.3,0.2-0.6,0.4v0.4c0.5,0,1.1-0.1,1.6-0.1l4.9,0.1c0.6,0,1,0,1.3,0c0.1,0,0.3,0,0.5-0.1
		c0.1-1.1,0.2-2.1,0.4-2.9H-1061.4z"/>
	<g>
		<rect x="-1786.5" y="-379.7" fill="#1A5CCF" width="33" height="33"/>
		<rect x="-1753.5" y="-379.7" fill="#E6E6E6" width="33" height="33"/>
		<rect x="-1720.5" y="-379.7" fill="#DE0025" width="33" height="33"/>
	</g>
</g>
<g id="Layer_3">
	<g>
		<path fill="#E6E6E6" d="M174.4,0H94.6C93.2,0,92,1.2,92,2.6v0.1c0,1.4,1.2,2.6,2.6,2.6h3.2V15h73.3V5.3h3.2c1.4,0,2.6-1.2,2.6-2.6
			V2.6C177,1.2,175.8,0,174.4,0z M174.3,20.3H94.7c-1.5,0-2.7,1.2-2.7,2.7c0,1.5,1.2,2.7,2.7,2.7h3.2v55.7h17.6V63.8
			c0-10.5,8.5-19,19-19s19,8.5,19,19v17.5h17.6V25.7h3.2c1.5,0,2.7-1.2,2.7-2.7C177,21.5,175.8,20.3,174.3,20.3z"/>
		<path fill="#E6E6E6" d="M25.5,103.5v2c2.1,0,3.3,0.2,3.7,0.5c0.2,0.2,0.4,0.5,0.4,1.1c0.2,1.5,0.3,6.4,0.3,14.8v5.4
			c-2.2-2.2-4.9-5.3-8.2-9.3c-4.6-5.5-8.5-10.3-11.7-14.5l-2.2,0.1l-3.4,0.1c-0.9,0-2.4-0.1-4.4-0.2v2c1.6,0.1,2.6,0.2,3,0.3
			c0.3,0.1,0.6,0.2,0.7,0.4c0.1,0.2,0.3,0.4,0.3,0.8c0.1,0.3,0.1,1.1,0.1,2.2l0.1,6.8v7.5c0,2.1,0,3.8-0.1,5.1
			c-0.1,2.3-0.2,3.7-0.3,4.3c-0.1,0.4-0.2,0.7-0.3,0.9s-0.3,0.2-0.4,0.3c-0.3,0.1-1.3,0.2-3.2,0.3v2c2.6-0.1,4.7-0.2,6.2-0.2
			c0.4,0,2.1,0,5.1,0.1v-1.9c-0.2,0-0.4,0-0.5,0c-0.5,0-1.2-0.1-2.2-0.2c-0.4,0-0.6-0.1-0.8-0.2s-0.3-0.3-0.3-0.5
			c-0.1-0.4-0.2-1.5-0.3-3.3C7.1,127.5,7,125,7,122.6v-11.7c9.3,11.3,16.4,19.8,21.5,25.4c1.4,0.2,2.7,0.4,4,0.6l0.3-0.2
			c-0.2-2.2-0.3-8.5-0.3-18.9c0-1.3,0-3.4,0.1-6.2s0.2-4.6,0.5-5.4c0-0.2,0.1-0.3,0.3-0.4c0.4-0.2,1.5-0.4,3.4-0.4v-2
			c-2.4,0.1-4.4,0.2-6,0.2C29.1,103.7,27.4,103.7,25.5,103.5z M61.4,118.1c-0.5-0.8-1.2-1.7-2.1-2.5c-0.9-0.8-2-1.4-3.2-1.8
			c-1.6-0.6-3.4-0.8-5.4-0.8c-2,0-3.9,0.3-5.5,0.9c-1.3,0.5-2.5,1.2-3.7,2.2s-2,2.3-2.6,3.8c-0.6,1.5-0.9,3.2-0.9,5.2
			c0,2.6,0.5,4.8,1.5,6.5c1,1.7,2.4,3.1,4.2,3.9c1.8,0.9,3.9,1.3,6.3,1.3c2.3,0,4.3-0.4,6.1-1.1c1.3-0.5,2.4-1.3,3.5-2.3
			c1-1,1.8-2.2,2.3-3.5c0.7-1.8,1.1-3.7,1.1-5.7c0-1.2-0.1-2.3-0.4-3.3C62.3,119.9,61.9,119,61.4,118.1z M56.9,130.7
			c-0.6,1.6-1.5,2.7-2.6,3.3c-1.1,0.7-2.3,1-3.7,1c-1.5,0-2.8-0.3-3.9-1c-1.1-0.7-2-1.9-2.7-3.5c-0.7-1.7-1-3.8-1-6.3
			c0-1.8,0.3-3.4,0.8-4.9c0.5-1.5,1.3-2.6,2.4-3.3s2.5-1.1,4.1-1.1c1.4,0,2.5,0.2,3.4,0.7c0.8,0.5,1.6,1.2,2.2,2
			c0.6,0.9,1.1,2,1.4,3.2c0.3,1.3,0.5,2.7,0.5,4.2C57.8,127.3,57.5,129.2,56.9,130.7z M87.4,114.8v-1.4l-3.5,0.1l-4.2-0.1v1.4
			c0.5,0,1.1,0,1.8,0.1c0.3,0,0.5,0,0.6,0.1c0.1,0,0.2,0.1,0.2,0.2s0.1,0.2,0.1,0.4c0,0.1,0,0.3,0,0.4c-0.1,0.4-0.4,1.3-0.9,2.6
			c-0.7,1.9-1.1,2.9-1.2,3.1l-3.6,9l-4.1-10.1c0-0.1-0.1-0.2-0.1-0.3s-0.2-0.6-0.7-1.6c-0.7-1.7-1.1-2.8-1.1-3.1
			c0-0.2,0-0.3,0.1-0.4c0.1-0.1,0.3-0.2,0.5-0.2c0.4-0.1,1.1-0.2,2-0.2v-1.4l-5.9,0.1c-0.6,0-2.2,0-4.8-0.1v1.4c1,0,1.7,0.1,2,0.3
			c0.2,0.1,0.5,0.6,1,1.4c0.4,0.8,1.5,3.4,3.4,7.8l2.3,5.6c0.9,2.1,1.7,4.2,2.7,6.5h2.5c0.7-1.9,1.9-5.1,3.8-9.6l2.2-5.3l1.2-2.7
			c0.9-2.3,1.6-3.5,1.9-3.7C85.7,115,86.3,114.9,87.4,114.8z M106.8,134.8c-0.1,0-0.2-0.1-0.3-0.2c-0.1-0.1-0.2-0.2-0.3-0.4
			l-0.7-1.5l-1-2.2l-7.3-17.1h-2.3l-1.4,3.7l-4.3,10.6c-0.8,2-1.4,3.3-1.6,4c-0.6,1.4-1,2.3-1.1,2.5c-0.1,0.2-0.2,0.4-0.4,0.5
			c-0.1,0.1-0.3,0.2-0.4,0.2c-0.2,0-0.7,0.1-1.6,0.2v1.4l3.8-0.1l3.8,0.1V135c-1.3,0-2.1-0.1-2.3-0.3c-0.2-0.1-0.3-0.3-0.3-0.6
			c0-0.4,0.3-1.3,0.8-2.8l0.7-2h8.5l1.4,3.6c0.3,0.6,0.4,1.1,0.4,1.3c0,0.2-0.1,0.4-0.3,0.5s-0.9,0.2-2.2,0.2v1.4l5.8-0.1l4.6,0.1
			V135c-0.3,0-0.6-0.1-0.7-0.1C107.3,134.9,106.9,134.8,106.8,134.8z M94.7,127.5c-1.3,0-2.5,0-3.5,0l3.4-8.5l3.5,8.5
			C97.1,127.5,96,127.5,94.7,127.5z M140.8,103.5l-11.3,0.2l-8.3-0.2v2c1.5,0.1,2.4,0.2,2.8,0.3s0.6,0.2,0.7,0.2s0.2,0.2,0.2,0.4
			c0.1,0.5,0.2,1.4,0.3,2.6c0.1,4.2,0.2,6.3,0.2,6.6v9.7c0,0.8,0,2.2-0.1,4.1s-0.1,3-0.2,3.4c-0.1,0.6-0.2,1-0.3,1.2
			c-0.1,0.1-0.2,0.2-0.4,0.3c-0.3,0.1-1.3,0.2-3.1,0.2v1.9c2.9-0.1,5-0.2,6.3-0.2l9.2,0.2v-1.9c-2.2-0.2-3.4-0.3-3.7-0.4
			s-0.5-0.2-0.6-0.4c-0.2-0.2-0.3-1.1-0.4-2.6s-0.1-4.1-0.1-7.8v-2.6c0.9,0,1.5,0,1.9,0c2.5,0,4.3,0.1,5.5,0.3
			c0.5,0.1,0.7,0.2,0.8,0.4c0.2,0.4,0.4,1.6,0.4,3.5h2.1v-10.2h-2.1c0,1.4-0.1,2.3-0.3,2.7c-0.1,0.3-0.2,0.5-0.4,0.5
			c-0.5,0.2-1.8,0.3-3.8,0.3c-0.7,0-2-0.1-4-0.2v-3.3c0-4.1,0.1-6.9,0.3-8.4c0.4,0,1.3-0.1,2.5-0.1s1.9-0.1,2.2-0.1
			c1.4,0,2.6,0.1,3.6,0.3s1.7,0.4,2,0.5c0.1,0,0.2,0.1,0.2,0.2c0.1,0.1,0.1,0.6,0.1,1.2c0.1,1.3,0.1,2.1,0.1,2.5h1.9
			c0-1,0.1-2.2,0.2-3.6s0.3-2.5,0.4-3.4l-0.2-0.3C143.8,103.6,142.4,103.5,140.8,103.5z M166.7,134.4c-0.2-0.2-0.7-0.8-1.5-1.9
			c-0.1-0.1-0.4-0.6-1.1-1.6l-2.5-3.8c-0.1-0.1-0.1-0.2-0.2-0.3s-0.3-0.4-0.6-0.9c-0.3-0.5-0.7-1-0.9-1.5c1.7-0.6,3-1.5,3.8-2.6
			c0.8-1.1,1.2-2.3,1.2-3.6c0-1.1-0.3-2.1-0.9-2.8s-1.3-1.3-2.2-1.5c-0.9-0.2-2.1-0.4-3.9-0.4c-0.9,0-2,0-3.4,0.1
			c-0.8,0-1.8,0.1-3,0.1c-1.3,0-2.4,0-3.1,0c-1.5-0.1-2.4-0.1-2.6-0.1v1.3c1.3,0.1,2.2,0.2,2.4,0.3c0.1,0.1,0.2,0.2,0.2,0.3
			c0.1,0.3,0.2,1.1,0.2,2.5l0.1,3.5v6.1l-0.1,4.8c0,0.9-0.1,1.5-0.2,1.9c0,0.2-0.1,0.4-0.1,0.5c-0.1,0.1-0.2,0.1-0.3,0.2
			c-0.2,0.1-1,0.1-2.2,0.2v1.4c1.5-0.1,3-0.1,4.7-0.1c1.9,0,3.8,0,5.7,0.1v-1.4c-1.1,0-1.7-0.1-1.9-0.1s-0.4-0.1-0.5-0.2
			c-0.1-0.1-0.2-0.2-0.2-0.2c-0.1-0.2-0.1-0.6-0.2-1.2c0-0.3-0.1-1.6-0.1-3.8c0-1.8-0.1-3.6-0.1-5.2c0-1,0-3.1,0.1-6.2
			c0-1.4,0.1-2.3,0.1-2.7c0.5-0.1,1-0.1,1.6-0.1c1.2,0,2,0.1,2.5,0.2c0.7,0.3,1.3,0.7,1.8,1.4c0.5,0.7,0.7,1.5,0.7,2.5
			c0,1-0.2,1.9-0.7,2.7c-0.5,0.8-1,1.4-1.7,1.7c-0.7,0.3-1.7,0.4-3,0.4l-0.2,0.5c0.3,0.2,0.7,0.6,1,1.1c0.7,1,1.6,2.3,2.6,3.9
			l3.5,5.8c0.2,0.4,0.3,0.7,0.4,0.9c0.9,0,1.7-0.1,2.6-0.1c0.8,0,2,0,3.7,0.1v-1.4c-0.5,0-0.9-0.1-1-0.1
			C167.1,134.7,166.9,134.5,166.7,134.4z M192.5,134.8c-0.1,0-0.2-0.1-0.3-0.2c-0.1-0.1-0.2-0.2-0.3-0.4l-0.7-1.5l-1-2.2l-7.3-17.1
			h-2.3l-1.4,3.7l-4.3,10.6c-0.8,2-1.4,3.3-1.6,4c-0.6,1.4-1,2.3-1.1,2.5c-0.1,0.2-0.2,0.4-0.4,0.5c-0.1,0.1-0.3,0.2-0.4,0.2
			c-0.2,0-0.7,0.1-1.6,0.2v1.4l3.8-0.1l3.8,0.1V135c-1.3,0-2.1-0.1-2.3-0.3c-0.2-0.1-0.3-0.3-0.3-0.6c0-0.4,0.3-1.3,0.8-2.8l0.7-2
			h8.5l1.4,3.6c0.2,0.6,0.4,1.1,0.4,1.3c0,0.2-0.1,0.4-0.3,0.5c-0.2,0.1-0.9,0.2-2.2,0.2v1.4l5.8-0.1l4.6,0.1V135
			c-0.3,0-0.6-0.1-0.7-0.1C192.9,134.9,192.6,134.8,192.5,134.8z M180.4,127.5c-1.3,0-2.5,0-3.5,0l3.4-8.5l3.5,8.5
			C182.8,127.5,181.6,127.5,180.4,127.5z M213.7,113.4v1.4c1.5,0,2.3,0.1,2.6,0.3c0.2,0.1,0.2,0.4,0.3,0.8c0.1,1,0.2,4.5,0.2,10.4
			v3.8c-1.5-1.6-3.4-3.7-5.7-6.5c-3.2-3.8-5.9-7.2-8.2-10.2l-1.5,0.1l-2.4,0.1c-0.7,0-1.7,0-3.1-0.1v1.4c1.2,0.1,1.8,0.1,2.1,0.2
			c0.2,0.1,0.4,0.2,0.5,0.3c0.1,0.1,0.2,0.3,0.2,0.5c0.1,0.2,0.1,0.8,0.1,1.6l0.1,4.8v5.3c0,1.5,0,2.6-0.1,3.5
			c-0.1,1.6-0.2,2.6-0.2,3c-0.1,0.3-0.1,0.5-0.2,0.6s-0.2,0.2-0.3,0.2c-0.2,0.1-0.9,0.1-2.2,0.2v1.4c1.8-0.1,3.3-0.1,4.3-0.1
			c0.3,0,1.5,0,3.5,0v-1.3c-0.2,0-0.3,0-0.3,0c-0.3,0-0.8,0-1.6-0.1c-0.3,0-0.4-0.1-0.5-0.2s-0.2-0.2-0.2-0.3
			c-0.1-0.3-0.2-1-0.2-2.3c-0.1-1.8-0.1-3.6-0.1-5.3v-8.2c6.5,7.9,11.5,13.8,15,17.8c1,0.1,1.9,0.3,2.8,0.4l0.2-0.1
			c-0.1-1.6-0.2-6-0.2-13.2c0-0.9,0-2.4,0.1-4.3c0-2,0.2-3.2,0.3-3.7c0-0.1,0.1-0.2,0.2-0.2c0.3-0.2,1-0.3,2.4-0.3v-1.4
			c-1.7,0.1-3.1,0.1-4.2,0.1C216.3,113.5,215,113.5,213.7,113.4z M236.1,114.9c1.4,0,2.6,0.2,3.5,0.6s1.7,0.9,2.5,1.7
			c0.1,0.7,0.1,1.7,0.2,2.9h1.3c0-1,0.1-2.2,0.3-3.4c0.1-0.8,0.2-1.4,0.4-1.9l-0.1-0.2c-1.6-0.6-2.9-0.9-4.1-1.2s-2.5-0.3-4-0.3
			c-4.3,0-7.6,1.1-10,3.3c-2.4,2.2-3.5,5-3.5,8.5c0,1.9,0.4,3.7,1.1,5.3c0.5,1.1,1.2,2.2,2.1,3.2c0.9,1,2,1.8,3.2,2.4
			c1.3,0.6,2.8,1,4.5,1.3l-1.3,2.9l0.4,0.3c0.3-0.1,0.6-0.2,0.9-0.2c0.4,0,0.8,0.1,1.1,0.4c0.3,0.2,0.4,0.5,0.4,0.8
			c0,0.4-0.1,0.6-0.4,0.9s-0.7,0.4-1.2,0.4c-0.6,0-1.4-0.1-2.2-0.4l-0.6,1.3c1,0.4,2.1,0.6,3.3,0.6c1.6,0,2.7-0.3,3.5-0.9
			c0.8-0.6,1.1-1.3,1.1-2.1c0-0.7-0.3-1.2-0.8-1.7c-0.5-0.5-1.3-0.7-2.4-0.7c-0.3,0-0.6,0-1,0.1l0.7-1.7h0.8c1.6,0,3-0.1,4.1-0.4
			c1.1-0.3,2.3-0.8,3.7-1.5l0.8-1.7l-0.4-0.4c-1.2,0.6-2.3,1-3.2,1.3c-1,0.3-2.1,0.4-3.2,0.4c-1.7,0-3.1-0.3-4.3-0.8
			c-0.9-0.4-1.7-1-2.6-1.9c-0.9-0.9-1.6-1.9-2.1-3.3s-0.8-2.8-0.8-4.6c0-2.9,0.8-5.2,2.3-6.8C231.5,115.7,233.6,114.9,236.1,114.9z
			 M269.4,134.9c-0.5,0-0.8-0.1-1-0.1c-0.1,0-0.2-0.1-0.3-0.2c-0.1-0.1-0.2-0.2-0.3-0.4l-0.7-1.5l-1-2.2l-7.3-17.1h-2.3L255,117
			l-4.3,10.6c-0.8,2-1.4,3.3-1.6,4c-0.6,1.4-1,2.3-1.1,2.5c-0.1,0.2-0.2,0.4-0.4,0.5c-0.1,0.1-0.3,0.2-0.4,0.2
			c-0.2,0-0.7,0.1-1.6,0.2v1.4l3.8-0.1l3.8,0.1V135c-1.3,0-2.1-0.1-2.3-0.3c-0.2-0.1-0.3-0.3-0.3-0.6c0-0.4,0.3-1.3,0.8-2.8l0.7-2
			h8.5l1.4,3.6c0.3,0.6,0.4,1.1,0.4,1.3c0,0.2-0.1,0.4-0.3,0.5s-0.9,0.2-2.2,0.2v1.4l5.8-0.1l4.6,0.1V135
			C269.8,134.9,269.5,134.9,269.4,134.9z M256.3,127.5c-1.3,0-2.5,0-3.5,0l3.4-8.5l3.5,8.5C258.7,127.5,257.5,127.5,256.3,127.5z"/>
		<path fill="#375B80" d="M38.7,172.7c-0.1-0.1-0.4-0.5-1-1.3l-2.1-2.7c-0.5-0.7-0.8-1.1-1-1.3c0.7-0.2,1.4-0.4,1.8-0.7
			s0.8-0.7,1.1-1.1s0.4-0.9,0.4-1.4c0-0.5-0.1-0.9-0.4-1.4c-0.3-0.4-0.6-0.7-1.1-0.9c-0.5-0.2-1.2-0.3-2.3-0.3c-0.1,0-0.6,0-1.5,0
			c-0.7,0-1.1,0-1.5,0l-1.6,0c-0.4,0-0.8,0-1,0v0.5c0.7,0,1,0,1.2,0.1c0.1,0,0.2,0.1,0.3,0.2s0.1,0.4,0.1,0.9c0,0.7,0,1.4,0,2.2v3.8
			c0,1.4,0,2.2,0,2.3c0,0.4-0.1,0.7-0.1,0.8c-0.1,0.1-0.2,0.1-0.3,0.2c-0.1,0-0.5,0.1-1.2,0.1v0.5c1.2,0,2.1-0.1,2.6-0.1
			c0.7,0,1.4,0,2.1,0.1v-0.5c-0.6,0-1,0-1.2-0.1c-0.1,0-0.2-0.1-0.3-0.2c-0.1-0.1-0.1-0.4-0.1-0.9c0-0.7,0-1.4,0-2.2v-3.6
			c0-1.5,0.1-2.3,0.1-2.4c0-0.3,0-0.5,0-0.8c0.5-0.2,1.1-0.3,1.7-0.3c0.9,0,1.6,0.2,2,0.6s0.7,0.9,0.7,1.6c0,0.8-0.3,1.4-0.8,1.9
			c-0.5,0.5-1.3,0.7-2.3,0.7c-0.1,0-0.4,0-0.6,0l-0.1,0.2c0.5,0.6,1.1,1.3,1.6,2c0.4,0.4,0.8,1,1.2,1.7c0.8,1.2,1.4,2,1.8,2.4
			c0.5,0,0.9-0.1,1.2-0.1c0.3,0,0.7,0,1.1,0.1v-0.5c-0.3,0-0.5,0-0.5,0C38.8,172.8,38.8,172.7,38.7,172.7z M58.4,171.6
			c-0.1,0.3-0.1,0.5-0.2,0.7c-0.3,0.1-0.5,0.2-0.8,0.2s-0.8,0.1-1.5,0.1c-1,0-1.9,0-2.6-0.1c0-0.5,0-1.3,0-2.3c0-1.1,0-1.9,0-2.4
			c0.7,0,1.2,0,1.6,0c0.9,0,1.5,0,1.8,0.1c0.2,0,0.3,0.1,0.4,0.2c0.1,0.1,0.1,0.4,0.1,0.8l0,0.6h0.6l0-1.9l0-1.7v-0.2h-0.5l0,0.6
			c0,0.4-0.1,0.6-0.1,0.7s-0.2,0.1-0.3,0.1c-0.5,0.1-1,0.1-1.7,0.1c-0.5,0-1.1,0-1.8-0.1l0-2.8c0-0.5,0-1.1,0-1.7c0.2,0,0.5,0,1-0.1
			c0.5,0,0.7,0,0.9,0c0.6,0,1.2,0,1.8,0.1c0.4,0,0.7,0.1,1,0.3c0.1,0.5,0.1,1,0.1,1.5h0.5c0.1-1.1,0.1-1.7,0.1-1.7
			c0-0.2,0.1-0.5,0.2-0.8c-0.5-0.1-1-0.1-1.5-0.1c-0.5,0-1.4,0-2.6,0l-2.5,0l-2.3,0v0.5c0.7,0,1,0,1.2,0.1c0.1,0,0.2,0.1,0.3,0.2
			c0.1,0.1,0.1,0.4,0.1,0.9c0,0.7,0,1.4,0,2.2v4.2c0,0.5,0,1.1,0,1.9c0,0.5-0.1,0.8-0.1,0.9c0,0.1-0.1,0.1-0.2,0.2
			c-0.2,0.1-0.6,0.1-1.1,0.1v0.5c1.4,0,2.1-0.1,2.1-0.1l4.9,0.1c0.7,0,1.2,0,1.7-0.1c0-0.7,0.1-1.6,0.2-2.7h-0.5
			C58.6,170.7,58.5,171.1,58.4,171.6z M77.3,167.5c-0.2-0.2-0.6-0.4-1.1-0.5c-0.5-0.1-1.2-0.2-1.8-0.3c-0.7-0.1-1.2-0.2-1.5-0.3
			c-0.4-0.2-0.7-0.4-0.9-0.6c-0.2-0.3-0.3-0.6-0.3-1.1c0-0.8,0.2-1.4,0.7-1.9s1.1-0.7,1.9-0.7c0.6,0,1.2,0.2,1.8,0.5
			c0.2,0.2,0.4,0.3,0.6,0.5c0,0.1,0.1,0.5,0.1,1.4h0.5c0-0.6,0-1,0.1-1.3s0.1-0.6,0.2-1c-0.5-0.2-1-0.4-1.5-0.5
			c-0.5-0.1-1.1-0.2-1.5-0.2c-0.8,0-1.5,0.2-2.1,0.5c-0.7,0.3-1.2,0.8-1.5,1.3c-0.3,0.6-0.5,1.2-0.5,1.8c0,0.4,0.1,0.9,0.2,1.2
			c0.2,0.4,0.4,0.7,0.7,0.9c0.3,0.2,0.7,0.4,1.3,0.6c0.4,0.1,0.9,0.2,1.6,0.3c0.6,0.1,1,0.1,1.2,0.2c0.3,0.1,0.6,0.2,0.8,0.3
			c0.2,0.2,0.4,0.4,0.5,0.6c0.1,0.3,0.2,0.6,0.2,0.9c0,0.5-0.1,0.9-0.3,1.3s-0.6,0.7-1,1c-0.5,0.3-1,0.4-1.5,0.4
			c-0.4,0-0.8-0.1-1.2-0.2s-0.7-0.3-1-0.4c-0.2-0.2-0.4-0.3-0.5-0.5s-0.1-0.6-0.1-1.4h-0.5c0,1.2-0.1,2-0.2,2.5
			c0.9,0.4,1.9,0.6,2.9,0.6c1.4,0,2.6-0.4,3.5-1.2c0.9-0.8,1.4-1.8,1.4-2.8c0-0.5-0.1-0.9-0.2-1.2C77.8,168,77.6,167.7,77.3,167.5z
			 M88.7,161.7v0.5c0.7,0,1,0,1.2,0.1c0.1,0,0.2,0.1,0.3,0.2c0.1,0.1,0.1,0.4,0.1,0.9c0,0.7,0,1.4,0,2.2v3.8c0,1.4,0,2.2,0,2.3
			c0,0.4-0.1,0.7-0.1,0.8c-0.1,0.1-0.2,0.1-0.3,0.2c-0.1,0-0.5,0.1-1.2,0.1v0.5l2.5-0.1c0.4,0,1.1,0,2.3,0.1v-0.5
			c-0.7,0-1,0-1.2-0.1c-0.1,0-0.2-0.1-0.3-0.2c-0.1-0.1-0.1-0.4-0.1-0.9c0-0.7,0-1.4,0-2.2v-3.8c0-1.4,0-2.2,0-2.3
			c0-0.4,0.1-0.7,0.1-0.8c0.1-0.1,0.2-0.1,0.3-0.2c0.1,0,0.5-0.1,1.2-0.1v-0.5c-1.1,0-1.9,0.1-2.4,0.1
			C90.6,161.7,89.8,161.7,88.7,161.7z M113.5,162.2c-0.8-0.3-1.9-0.5-3.2-0.5c-0.4,0-1.1,0-1.9,0c-0.8,0-1.5,0-1.9,0
			c-0.6,0-1.3,0-2.1,0v0.5c0.6,0,0.9,0,1.1,0.1c0.1,0,0.1,0.1,0.2,0.2c0.1,0.1,0.1,0.4,0.1,0.8c0,0.7,0,1.3,0,1.9v3.3
			c0,0.4,0,1.2-0.1,2.3c0,0.7,0,1.2-0.1,1.5c-0.2,0.1-0.5,0.3-0.8,0.5v0.4c0.8,0,1.4-0.1,1.8-0.1c0.2,0,0.7,0,1.5,0c0.6,0,1,0,1.4,0
			c1,0,1.8-0.1,2.4-0.2c0.6-0.2,1.1-0.4,1.7-0.7c0.5-0.3,1-0.7,1.5-1.3c0.5-0.5,0.8-1.2,1.1-1.9c0.3-0.7,0.4-1.5,0.4-2.3
			c0-1.2-0.3-2.1-0.9-2.9C115,163.1,114.3,162.5,113.5,162.2z M114.4,169.3c-0.2,0.7-0.5,1.2-0.8,1.6c-0.4,0.4-0.7,0.7-1.1,1
			c-0.4,0.2-0.8,0.4-1.4,0.5c-0.5,0.1-1.1,0.2-1.8,0.2c-0.7,0-1.3-0.1-1.9-0.2c0-0.6,0-1.1,0-1.5l0-2.5v-3.3l0-1.2
			c0-0.7,0-1.2,0-1.4c0.7-0.1,1.4-0.2,2.1-0.2c1.3,0,2.3,0.2,3,0.6s1.3,0.9,1.6,1.7s0.5,1.6,0.5,2.6
			C114.7,168,114.6,168.6,114.4,169.3z M135.3,171.6c-0.1,0.3-0.1,0.5-0.2,0.7c-0.3,0.1-0.5,0.2-0.8,0.2s-0.8,0.1-1.5,0.1
			c-1,0-1.9,0-2.6-0.1c0-0.5,0-1.3,0-2.3c0-1.1,0-1.9,0-2.4c0.7,0,1.2,0,1.6,0c0.9,0,1.5,0,1.8,0.1c0.2,0,0.3,0.1,0.4,0.2
			c0.1,0.1,0.1,0.4,0.1,0.8l0,0.6h0.6l0-1.9l0-1.7v-0.2h-0.5l0,0.6c0,0.4-0.1,0.6-0.1,0.7s-0.2,0.1-0.3,0.1c-0.5,0.1-1,0.1-1.7,0.1
			c-0.5,0-1.1,0-1.8-0.1l0-2.8c0-0.5,0-1.1,0-1.7c0.2,0,0.5,0,1-0.1c0.5,0,0.7,0,0.9,0c0.6,0,1.2,0,1.8,0.1c0.4,0,0.7,0.1,1,0.3
			c0.1,0.5,0.1,1,0.1,1.5h0.5c0.1-1.1,0.1-1.7,0.1-1.7c0-0.2,0.1-0.5,0.2-0.8c-0.5-0.1-1-0.1-1.5-0.1c-0.5,0-1.4,0-2.6,0l-2.5,0
			l-2.3,0v0.5c0.7,0,1,0,1.2,0.1c0.1,0,0.2,0.1,0.3,0.2c0.1,0.1,0.1,0.4,0.1,0.9c0,0.7,0,1.4,0,2.2v4.2c0,0.5,0,1.1,0,1.9
			c0,0.5-0.1,0.8-0.1,0.9c0,0.1-0.1,0.1-0.2,0.2c-0.2,0.1-0.6,0.1-1.1,0.1v0.5c1.4,0,2.1-0.1,2.1-0.1l4.9,0.1c0.7,0,1.2,0,1.7-0.1
			c0-0.7,0.1-1.6,0.2-2.7h-0.5C135.5,170.7,135.4,171.1,135.3,171.6z M156.4,161.7v0.5c0.6,0,0.9,0,1.1,0.1c0.1,0,0.1,0.1,0.2,0.2
			c0,0.1,0.1,0.4,0.1,0.8c0,0.7,0.1,1.3,0.1,1.9v6c-0.2-0.2-0.5-0.5-0.8-0.9c-0.5-0.5-1.1-1.3-1.9-2.2l-2.4-3L151,163
			c-0.2-0.3-0.6-0.7-1-1.3c-0.4,0-0.8,0-1.2,0c-0.2,0-0.8,0-1.8,0v0.5c0.4,0,0.7,0,0.9,0c0.1,0,0.2,0.1,0.3,0.2
			c0.2,0.1,0.3,0.3,0.3,0.4c0,0.1,0,0.2,0,0.4v6.7c0,0.5,0,1.1,0,1.9c0,0.5-0.1,0.8-0.1,0.9c0,0.1-0.1,0.1-0.2,0.2
			c-0.2,0.1-0.6,0.1-1.1,0.1v0.5c0.7,0,1.4-0.1,2.1-0.1c0.6,0,1.1,0,1.6,0.1v-0.5c-0.6,0-0.9,0-1.1-0.1c-0.1,0-0.1-0.1-0.2-0.2
			c0-0.1-0.1-0.4-0.1-0.8c0-0.7-0.1-1.4-0.1-1.9v-6.4l5.8,7l1.1,1.4c0.2,0.3,0.5,0.7,1,1.2c0.2,0.2,0.3,0.3,0.3,0.3c0,0,0.1,0,0.1,0
			l0.2,0l0.8,0.2c0-2.2,0-3.7,0-4.5v-3.9c0-0.5,0-1.1,0-1.9c0-0.5,0.1-0.8,0.1-0.9c0-0.1,0.1-0.1,0.2-0.2c0.2-0.1,0.6-0.1,1.1-0.1
			v-0.5c-0.5,0-1.1,0-1.7,0C157.6,161.7,157,161.7,156.4,161.7z M173.8,163.3c0.4-0.4,0.9-0.7,1.4-0.9c0.5-0.2,1.2-0.3,2-0.3
			c1,0,1.8,0.1,2.4,0.4c0.5,0.3,0.8,0.7,0.9,1.2l0,1h0.5c0-0.6,0.1-1.2,0.2-1.6c0.1-0.3,0.2-0.6,0.3-0.9c-0.1,0-0.5-0.1-1.1-0.3
			c-0.6-0.2-1.1-0.3-1.5-0.3s-0.9-0.1-1.4-0.1c-2.1,0-3.8,0.6-5,1.7s-1.8,2.6-1.8,4.3c0,0.7,0.1,1.3,0.3,1.9
			c0.2,0.6,0.4,1.1,0.8,1.6c0.3,0.5,0.8,0.9,1.3,1.3c0.5,0.4,1.2,0.7,1.9,0.9c0.7,0.2,1.5,0.3,2.4,0.3c0.7,0,1.4-0.1,2-0.2
			c0.6-0.1,1.2-0.4,1.9-0.7l0.3-0.8l-0.1-0.2c-0.4,0.3-0.9,0.5-1.3,0.7c-0.6,0.2-1.3,0.3-2.1,0.3c-1.7,0-3-0.5-4-1.5s-1.5-2.3-1.5-4
			c0-0.9,0.1-1.7,0.4-2.4C173,164.2,173.3,163.7,173.8,163.3z M192.3,161.7v0.5c0.7,0,1,0,1.2,0.1c0.1,0,0.2,0.1,0.3,0.2
			s0.1,0.4,0.1,0.9c0,0.7,0,1.4,0,2.2v3.8c0,1.4,0,2.2,0,2.3c0,0.4-0.1,0.7-0.1,0.8c-0.1,0.1-0.2,0.1-0.3,0.2
			c-0.1,0-0.5,0.1-1.2,0.1v0.5l2.5-0.1c0.4,0,1.1,0,2.3,0.1v-0.5c-0.7,0-1,0-1.2-0.1c-0.1,0-0.2-0.1-0.3-0.2s-0.1-0.4-0.1-0.9
			c0-0.7,0-1.4,0-2.2v-3.8c0-1.4,0-2.2,0-2.3c0-0.4,0.1-0.7,0.1-0.8c0.1-0.1,0.2-0.1,0.3-0.2c0.1,0,0.5-0.1,1.2-0.1v-0.5
			c-1.1,0-1.9,0.1-2.4,0.1C194.1,161.7,193.3,161.7,192.3,161.7z M219.2,172.3c-0.2-0.3-0.6-1.2-1.1-2.5l-3.5-8.2H214
			c-0.7,1.8-1.2,2.9-1.4,3.4l-2.1,4.6c-0.6,1.3-1,2.1-1.1,2.3c-0.2,0.4-0.3,0.6-0.4,0.7s-0.2,0.1-0.3,0.2c-0.1,0-0.4,0-0.8,0.1v0.6
			c0.6,0,1.2-0.1,1.7-0.1c0.5,0,1.2,0,2.1,0.1v-0.6c-0.5,0-0.9,0-1.1-0.1c-0.1,0-0.2-0.1-0.3-0.1c0,0-0.1-0.1-0.1-0.2
			c0-0.2,0.1-0.5,0.2-0.8l0.9-2.1h4.8l1,2.5c0.1,0.2,0.1,0.3,0.1,0.5c0,0.1,0,0.1-0.1,0.2s-0.1,0.1-0.3,0.1c-0.1,0-0.5,0-1.1,0.1
			v0.6l2.6-0.1c0.3,0,0.9,0,1.8,0.1v-0.6c-0.4,0-0.7,0-0.8-0.1S219.3,172.5,219.2,172.3z M211.8,168.7l2.1-4.9l2,4.9H211.8z
			 M239.6,170.4l-0.3,1.4c-0.1,0.2-0.1,0.4-0.2,0.6c-0.6,0.2-1.7,0.3-3.2,0.3c-0.6,0-1.2,0-1.9-0.1c0-0.4,0-0.8,0-1.4v-5.5
			c0-1.4,0-2.2,0-2.3c0-0.4,0.1-0.7,0.1-0.8c0.1-0.1,0.2-0.1,0.3-0.2c0.1,0,0.5-0.1,1.2-0.1v-0.5c-1.2,0-2,0.1-2.4,0.1
			c-0.3,0-1.1,0-2.5-0.1v0.5c0.7,0,1,0,1.2,0.1c0.1,0,0.2,0.1,0.3,0.2c0.1,0.1,0.1,0.4,0.1,0.9c0,0.7,0,1.4,0,2.2v4.4
			c0,0.1,0,0.6,0,1.3c0,0.5,0,0.8-0.1,1c0,0.1-0.1,0.1-0.1,0.2c-0.1,0.1-0.3,0.2-0.6,0.4v0.4c0.5,0,1.1-0.1,1.6-0.1l4.9,0.1
			c0.6,0,1,0,1.3,0c0.1,0,0.3,0,0.5-0.1c0.1-1.1,0.2-2.1,0.4-2.9H239.6z"/>
	</g>
</g>
</svg>
