<?xml version="1.0" encoding="utf-8"?>
<!-- Generator: Adobe Illustrator 18.0.0, SVG Export Plug-In . SVG Version: 6.00 Build 0)  -->
<!DOCTYPE svg PUBLIC "-//W3C//DTD SVG 1.1//EN" "http://www.w3.org/Graphics/SVG/1.1/DTD/svg11.dtd">
<svg version="1.1" id="Layer_1" xmlns="http://www.w3.org/2000/svg" xmlns:xlink="http://www.w3.org/1999/xlink" x="0px" y="0px"
	 viewBox="0 0 1280 800" enable-background="new 0 0 1280 800" xml:space="preserve">
<g id="Layer_3">
	<path fill="#E6E6E6" d="M135.2,477v9.2c9.7,0,15.2,0.9,17.1,2.3c0.9,0.9,1.8,2.3,1.8,5.1c0.9,6.9,1.4,29.5,1.4,68.2v24.9
		c-10.1-10.1-22.6-24.4-37.8-42.9c-21.2-25.3-39.2-47.5-53.9-66.8l-10.1,0.5l-15.7,0.5c-4.1,0-11.1-0.5-20.3-0.9v9.2
		c7.4,0.5,12,0.9,13.8,1.4c1.4,0.5,2.8,0.9,3.2,1.8c0.5,0.9,1.4,1.8,1.4,3.7c0.5,1.4,0.5,5.1,0.5,10.1l0.5,31.3v34.6
		c0,9.7,0,17.5-0.5,23.5c-0.5,10.6-0.9,17.1-1.4,19.8c-0.5,1.8-0.9,3.2-1.4,4.1c-0.5,0.9-1.4,0.9-1.8,1.4c-1.4,0.5-6,0.9-14.7,1.4
		v9.2c12-0.5,21.7-0.9,28.6-0.9c1.8,0,9.7,0,23.5,0.5v-8.8c-0.9,0-1.8,0-2.3,0c-2.3,0-5.5-0.5-10.1-0.9c-1.8,0-2.8-0.5-3.7-0.9
		c-0.9-0.5-1.4-1.4-1.4-2.3c-0.5-1.8-0.9-6.9-1.4-15.2c0-12.4-0.5-24-0.5-35v-53.9c42.9,52.1,75.6,91.2,99.1,117.1
		c6.5,0.9,12.4,1.8,18.4,2.8l1.4-0.9c-0.9-10.1-1.4-39.2-1.4-87.1c0-6,0-15.7,0.5-28.6c0.5-12.9,0.9-21.2,2.3-24.9
		c0-0.9,0.5-1.4,1.4-1.8c1.8-0.9,6.9-1.8,15.7-1.8v-9.2c-11.1,0.5-20.3,0.9-27.6,0.9C151.8,477.9,143.9,477.9,135.2,477z
		 M300.6,544.2c-2.3-3.7-5.5-7.8-9.7-11.5c-4.1-3.7-9.2-6.5-14.7-8.3c-7.4-2.8-15.7-3.7-24.9-3.7c-9.2,0-18,1.4-25.3,4.1
		c-6,2.3-11.5,5.5-17.1,10.1c-5.5,4.6-9.2,10.6-12,17.5c-2.8,6.9-4.1,14.7-4.1,24c0,12,2.3,22.1,6.9,30s11.1,14.3,19.4,18
		c8.3,4.1,18,6,29,6c10.6,0,19.8-1.8,28.1-5.1c6-2.3,11.1-6,16.1-10.6c4.6-4.6,8.3-10.1,10.6-16.1c3.2-8.3,5.1-17.1,5.1-26.3
		c0-5.5-0.5-10.6-1.8-15.2C304.7,552.5,302.9,548.4,300.6,544.2z M279.9,602.3c-2.8,7.4-6.9,12.4-12,15.2
		c-5.1,3.2-10.6,4.6-17.1,4.6c-6.9,0-12.9-1.4-18-4.6c-5.1-3.2-9.2-8.8-12.4-16.1c-3.2-7.8-4.6-17.5-4.6-29c0-8.3,1.4-15.7,3.7-22.6
		c2.3-6.9,6-12,11.1-15.2s11.5-5.1,18.9-5.1c6.5,0,11.5,0.9,15.7,3.2c3.7,2.3,7.4,5.5,10.1,9.2c2.8,4.1,5.1,9.2,6.5,14.7
		c1.4,6,2.3,12.4,2.3,19.4C284,586.6,282.6,595.4,279.9,602.3z M420.4,529v-6.5l-16.1,0.5l-19.4-0.5v6.5c2.3,0,5.1,0,8.3,0.5
		c1.4,0,2.3,0,2.8,0.5c0.5,0,0.9,0.5,0.9,0.9s0.5,0.9,0.5,1.8c0,0.5,0,1.4,0,1.8c-0.5,1.8-1.8,6-4.1,12c-3.2,8.8-5.1,13.4-5.5,14.3
		l-16.6,41.5l-18.9-46.5c0-0.5-0.5-0.9-0.5-1.4c0-0.5-0.9-2.8-3.2-7.4c-3.2-7.8-5.1-12.9-5.1-14.3c0-0.9,0-1.4,0.5-1.8
		s1.4-0.9,2.3-0.9c1.8-0.5,5.1-0.9,9.2-0.9v-6.5l-27.2,0.5c-2.8,0-10.1,0-22.1-0.5v6.5c4.6,0,7.8,0.5,9.2,1.4
		c0.9,0.5,2.3,2.8,4.6,6.5c1.8,3.7,6.9,15.7,15.7,35.9l10.6,25.8c4.1,9.7,7.8,19.4,12.4,30h11.5c3.2-8.8,8.8-23.5,17.5-44.2
		l10.1-24.4l5.5-12.4c4.1-10.6,7.4-16.1,8.8-17.1C412.6,530,415.3,529.5,420.4,529z M509.8,621.2c-0.5,0-0.9-0.5-1.4-0.9
		c-0.5-0.5-0.9-0.9-1.4-1.8l-3.2-6.9l-4.6-10.1l-33.6-78.8H455l-6.5,17.1l-19.8,48.8c-3.7,9.2-6.5,15.2-7.4,18.4
		c-2.8,6.5-4.6,10.6-5.1,11.5c-0.5,0.9-0.9,1.8-1.8,2.3c-0.5,0.5-1.4,0.9-1.8,0.9c-0.9,0-3.2,0.5-7.4,0.9v6.5l17.5-0.5l17.5,0.5
		v-6.9c-6,0-9.7-0.5-10.6-1.4c-0.9-0.5-1.4-1.4-1.4-2.8c0-1.8,1.4-6,3.7-12.9l3.2-9.2h39.2l6.5,16.6c1.4,2.8,1.8,5.1,1.8,6
		c0,0.9-0.5,1.8-1.4,2.3c-0.9,0.5-4.1,0.9-10.1,0.9v6.5l26.7-0.5l21.2,0.5v-6c-1.4,0-2.8-0.5-3.2-0.5
		C512.1,621.7,510.3,621.2,509.8,621.2z M454.1,587.6c-6,0-11.5,0-16.1,0l15.7-39.2l16.1,39.2C465.1,587.6,460,587.6,454.1,587.6z
		 M666.5,477l-52.1,0.9l-38.2-0.9v9.2c6.9,0.5,11.1,0.9,12.9,1.4c1.8,0.5,2.8,0.9,3.2,0.9s0.9,0.9,0.9,1.8c0.5,2.3,0.9,6.5,1.4,12
		c0.5,19.4,0.9,29,0.9,30.4v44.7c0,3.7,0,10.1-0.5,18.9c-0.5,8.8-0.5,13.8-0.9,15.7c-0.5,2.8-0.9,4.6-1.4,5.5
		c-0.5,0.5-0.9,0.9-1.8,1.4c-1.4,0.5-6,0.9-14.3,0.9v8.8c13.4-0.5,23-0.9,29-0.9l42.4,0.9v-8.8c-10.1-0.9-15.7-1.4-17.1-1.8
		c-1.4-0.5-2.3-0.9-2.8-1.8c-0.9-0.9-1.4-5.1-1.8-12c-0.5-6.9-0.5-18.9-0.5-35.9v-12c4.1,0,6.9,0,8.8,0c11.5,0,19.8,0.5,25.3,1.4
		c2.3,0.5,3.2,0.9,3.7,1.8c0.9,1.8,1.8,7.4,1.8,16.1h9.7v-47h-9.7c0,6.5-0.5,10.6-1.4,12.4c-0.5,1.4-0.9,2.3-1.8,2.3
		c-2.3,0.9-8.3,1.4-17.5,1.4c-3.2,0-9.2-0.5-18.4-0.9v-15.2c0-18.9,0.5-31.8,1.4-38.7c1.8,0,6-0.5,11.5-0.5c5.5,0,8.8-0.5,10.1-0.5
		c6.5,0,12,0.5,16.6,1.4c4.6,0.9,7.8,1.8,9.2,2.3c0.5,0,0.9,0.5,0.9,0.9c0.5,0.5,0.5,2.8,0.5,5.5c0.5,6,0.5,9.7,0.5,11.5h8.8
		c0-4.6,0.5-10.1,0.9-16.6c0.5-6.5,1.4-11.5,1.8-15.7l-0.9-1.4C680.3,477.4,673.9,477,666.5,477z M785.9,619.4
		c-0.9-0.9-3.2-3.7-6.9-8.8c-0.5-0.5-1.8-2.8-5.1-7.4l-11.5-17.5c-0.5-0.5-0.5-0.9-0.9-1.4c-0.5-0.5-1.4-1.8-2.8-4.1
		c-1.4-2.3-3.2-4.6-4.1-6.9c7.8-2.8,13.8-6.9,17.5-12c3.7-5.1,5.5-10.6,5.5-16.6c0-5.1-1.4-9.7-4.1-12.9s-6-6-10.1-6.9
		c-4.1-0.9-9.7-1.8-18-1.8c-4.1,0-9.2,0-15.7,0.5c-3.7,0-8.3,0.5-13.8,0.5c-6,0-11.1,0-14.3,0c-6.9-0.5-11.1-0.5-12-0.5v6
		c6,0.5,10.1,0.9,11.1,1.4c0.5,0.5,0.9,0.9,0.9,1.4c0.5,1.4,0.9,5.1,0.9,11.5l0.5,16.1V588l-0.5,22.1c0,4.1-0.5,6.9-0.9,8.8
		c0,0.9-0.5,1.8-0.5,2.3c-0.5,0.5-0.9,0.5-1.4,0.9c-0.9,0.5-4.6,0.5-10.1,0.9v6.5c6.9-0.5,13.8-0.5,21.7-0.5c8.8,0,17.5,0,26.3,0.5
		V623c-5.1,0-7.8-0.5-8.8-0.5c-0.9,0-1.8-0.5-2.3-0.9c-0.5-0.5-0.9-0.9-0.9-0.9c-0.5-0.9-0.5-2.8-0.9-5.5c0-1.4-0.5-7.4-0.5-17.5
		c0-8.3-0.5-16.6-0.5-24c0-4.6,0-14.3,0.5-28.6c0-6.5,0.5-10.6,0.5-12.4c2.3-0.5,4.6-0.5,7.4-0.5c5.5,0,9.2,0.5,11.5,0.9
		c3.2,1.4,6,3.2,8.3,6.5c2.3,3.2,3.2,6.9,3.2,11.5c0,4.6-0.9,8.8-3.2,12.4c-2.3,3.7-4.6,6.5-7.8,7.8c-3.2,1.4-7.8,1.8-13.8,1.8
		l-0.9,2.3c1.4,0.9,3.2,2.8,4.6,5.1c3.2,4.6,7.4,10.6,12,18l16.1,26.7c0.9,1.8,1.4,3.2,1.8,4.1c4.1,0,7.8-0.5,12-0.5
		c3.7,0,9.2,0,17.1,0.5V623c-2.3,0-4.1-0.5-4.6-0.5C787.7,620.7,786.8,619.8,785.9,619.4z M904.7,621.2c-0.5,0-0.9-0.5-1.4-0.9
		c-0.5-0.5-0.9-0.9-1.4-1.8l-3.2-6.9l-4.6-10.1l-33.6-78.8h-10.6l-6.5,17.1l-19.8,48.8c-3.7,9.2-6.5,15.2-7.4,18.4
		c-2.8,6.5-4.6,10.6-5.1,11.5c-0.5,0.9-0.9,1.8-1.8,2.3c-0.5,0.5-1.4,0.9-1.8,0.9c-0.9,0-3.2,0.5-7.4,0.9v6.5l17.5-0.5l17.5,0.5
		v-6.9c-6,0-9.7-0.5-10.6-1.4c-0.9-0.5-1.4-1.4-1.4-2.8c0-1.8,1.4-6,3.7-12.9l3.2-9.2h39.2l6.5,16.6c0.9,2.8,1.8,5.1,1.8,6
		c0,0.9-0.5,1.8-1.4,2.3c-0.9,0.5-4.1,0.9-10.1,0.9v6.5l26.7-0.5l21.2,0.5v-6c-1.4,0-2.8-0.5-3.2-0.5
		C906.6,621.7,905.2,621.2,904.7,621.2z M849,587.6c-6,0-11.5,0-16.1,0l15.7-39.2l16.1,39.2C860,587.6,854.5,587.6,849,587.6z
		 M1002.4,522.6v6.5c6.9,0,10.6,0.5,12,1.4c0.9,0.5,0.9,1.8,1.4,3.7c0.5,4.6,0.9,20.7,0.9,47.9v17.5c-6.9-7.4-15.7-17.1-26.3-30
		c-14.7-17.5-27.2-33.2-37.8-47l-6.9,0.5l-11.1,0.5c-3.2,0-7.8,0-14.3-0.5v6.5c5.5,0.5,8.3,0.5,9.7,0.9c0.9,0.5,1.8,0.9,2.3,1.4
		c0.5,0.5,0.9,1.4,0.9,2.3c0.5,0.9,0.5,3.7,0.5,7.4l0.5,22.1V588c0,6.9,0,12-0.5,16.1c-0.5,7.4-0.9,12-0.9,13.8
		c-0.5,1.4-0.5,2.3-0.9,2.8c-0.5,0.5-0.9,0.9-1.4,0.9c-0.9,0.5-4.1,0.5-10.1,0.9v6.5c8.3-0.5,15.2-0.5,19.8-0.5c1.4,0,6.9,0,16.1,0
		v-6c-0.9,0-1.4,0-1.4,0c-1.4,0-3.7,0-7.4-0.5c-1.4,0-1.8-0.5-2.3-0.9c-0.5-0.5-0.9-0.9-0.9-1.4c-0.5-1.4-0.9-4.6-0.9-10.6
		c-0.5-8.3-0.5-16.6-0.5-24.4V547c30,36.4,53,63.6,69.1,82c4.6,0.5,8.8,1.4,12.9,1.8l0.9-0.5c-0.5-7.4-0.9-27.6-0.9-60.8
		c0-4.1,0-11.1,0.5-19.8c0-9.2,0.9-14.7,1.4-17.1c0-0.5,0.5-0.9,0.9-0.9c1.4-0.9,4.6-1.4,11.1-1.4V524c-7.8,0.5-14.3,0.5-19.4,0.5
		C1014.4,523,1008.4,523,1002.4,522.6z M1105.7,529.5c6.5,0,12,0.9,16.1,2.8c4.1,1.8,7.8,4.1,11.5,7.8c0.5,3.2,0.5,7.8,0.9,13.4h6
		c0-4.6,0.5-10.1,1.4-15.7c0.5-3.7,0.9-6.5,1.8-8.8l-0.5-0.9c-7.4-2.8-13.4-4.1-18.9-5.5s-11.5-1.4-18.4-1.4
		c-19.8,0-35,5.1-46.1,15.2c-11.1,10.1-16.1,23-16.1,39.2c0,8.8,1.8,17.1,5.1,24.4c2.3,5.1,5.5,10.1,9.7,14.7
		c4.1,4.6,9.2,8.3,14.7,11.1c6,2.8,12.9,4.6,20.7,6l-6,13.4l1.8,1.4c1.4-0.5,2.8-0.9,4.1-0.9c1.8,0,3.7,0.5,5.1,1.8
		c1.4,0.9,1.8,2.3,1.8,3.7c0,1.8-0.5,2.8-1.8,4.1s-3.2,1.8-5.5,1.8c-2.8,0-6.5-0.5-10.1-1.8l-2.8,6c4.6,1.8,9.7,2.8,15.2,2.8
		c7.4,0,12.4-1.4,16.1-4.1c3.7-2.8,5.1-6,5.1-9.7c0-3.2-1.4-5.5-3.7-7.8c-2.3-2.3-6-3.2-11.1-3.2c-1.4,0-2.8,0-4.6,0.5l3.2-7.8h3.7
		c7.4,0,13.8-0.5,18.9-1.8c5.1-1.4,10.6-3.7,17.1-6.9l3.7-7.8l-1.8-1.8c-5.5,2.8-10.6,4.6-14.7,6c-4.6,1.4-9.7,1.8-14.7,1.8
		c-7.8,0-14.3-1.4-19.8-3.7c-4.1-1.8-7.8-4.6-12-8.8c-4.1-4.1-7.4-8.8-9.7-15.2c-2.3-6.5-3.7-12.9-3.7-21.2c0-13.4,3.7-24,10.6-31.3
		C1084.5,533.2,1094.1,529.5,1105.7,529.5z M1259.1,621.7c-2.3,0-3.7-0.5-4.6-0.5c-0.5,0-0.9-0.5-1.4-0.9c-0.5-0.5-0.9-0.9-1.4-1.8
		l-3.2-6.9l-4.6-10.1l-33.6-78.8h-10.6l-6.9,16.6l-19.8,48.8c-3.7,9.2-6.5,15.2-7.4,18.4c-2.8,6.5-4.6,10.6-5.1,11.5
		c-0.5,0.9-0.9,1.8-1.8,2.3c-0.5,0.5-1.4,0.9-1.8,0.9c-0.9,0-3.2,0.5-7.4,0.9v6.5l17.5-0.5l17.5,0.5v-6.5c-6,0-9.7-0.5-10.6-1.4
		c-0.9-0.5-1.4-1.4-1.4-2.8c0-1.8,1.4-6,3.7-12.9l3.2-9.2h39.2l6.5,16.6c1.4,2.8,1.8,5.1,1.8,6c0,0.9-0.5,1.8-1.4,2.3
		c-0.9,0.5-4.1,0.9-10.1,0.9v6.5l26.7-0.5l21.2,0.5v-6C1261,621.7,1259.6,621.7,1259.1,621.7z M1198.8,587.6c-6,0-11.5,0-16.1,0
		l15.7-39.2l16.1,39.2C1209.8,587.6,1204.3,587.6,1198.8,587.6z"/>
	<path fill="#375B80" d="M196,795.9c-0.5-0.5-1.8-2.3-4.6-6l-9.7-12.4c-2.3-3.2-3.7-5.1-4.6-6c3.2-0.9,6.5-1.8,8.3-3.2
		c1.8-1.4,3.7-3.2,5.1-5.1c1.4-1.8,1.8-4.1,1.8-6.5s-0.5-4.1-1.8-6.5c-1.4-1.8-2.8-3.2-5.1-4.1c-2.3-0.9-5.5-1.4-10.6-1.4
		c-0.5,0-2.8,0-6.9,0c-3.2,0-5.1,0-6.9,0h-7.4c-1.8,0-3.7,0-4.6,0v2.3c3.2,0,4.6,0,5.5,0.5c0.5,0,0.9,0.5,1.4,0.9
		c0.5,0.5,0.5,1.8,0.5,4.1c0,3.2,0,6.5,0,10.1v17.5c0,6.5,0,10.1,0,10.6c0,1.8-0.5,3.2-0.5,3.7c-0.5,0.5-0.9,0.5-1.4,0.9
		c-0.5,0-2.3,0.5-5.5,0.5v2.3c5.5,0,9.7-0.5,12-0.5c3.2,0,6.5,0,9.7,0.5v-2.3c-2.8,0-4.6,0-5.5-0.5c-0.5,0-0.9-0.5-1.4-0.9
		c-0.5-0.5-0.5-1.8-0.5-4.1c0-3.2,0-6.5,0-10.1v-16.6c0-6.9,0.5-10.6,0.5-11.1c0-1.4,0-2.3,0-3.7c2.3-0.9,5.1-1.4,7.8-1.4
		c4.1,0,7.4,0.9,9.2,2.8s3.2,4.1,3.2,7.4c0,3.7-1.4,6.5-3.7,8.8c-2.3,2.3-6,3.2-10.6,3.2c-0.5,0-1.8,0-2.8,0l-0.5,0.9
		c2.3,2.8,5.1,6,7.4,9.2c1.8,1.8,3.7,4.6,5.5,7.8c3.7,5.5,6.5,9.2,8.3,11.1c2.3,0,4.1-0.5,5.5-0.5c1.4,0,3.2,0,5.1,0.5v-2.3
		c-1.4,0-2.3,0-2.3,0C196.5,796.3,196.5,795.9,196,795.9z M286.8,790.8c-0.5,1.4-0.5,2.3-0.9,3.2c-1.4,0.5-2.3,0.9-3.7,0.9
		s-3.7,0.5-6.9,0.5c-4.6,0-8.8,0-12-0.5c0-2.3,0-6,0-10.6c0-5.1,0-8.8,0-11.1c3.2,0,5.5,0,7.4,0c4.1,0,6.9,0,8.3,0.5
		c0.9,0,1.4,0.5,1.8,0.9c0.5,0.5,0.5,1.8,0.5,3.7v2.8h2.8v-8.8v-7.8v-0.9h-2.3v2.8c0,1.8-0.5,2.8-0.5,3.2c0,0.5-0.9,0.5-1.4,0.5
		c-2.3,0.5-4.6,0.5-7.8,0.5c-2.3,0-5.1,0-8.3-0.5v-12.9c0-2.3,0-5.1,0-7.8c0.9,0,2.3,0,4.6-0.5c2.3,0,3.2,0,4.1,0
		c2.8,0,5.5,0,8.3,0.5c1.8,0,3.2,0.5,4.6,1.4c0.5,2.3,0.5,4.6,0.5,6.9h2.3c0.5-5.1,0.5-7.8,0.5-7.8c0-0.9,0.5-2.3,0.9-3.7
		c-2.3-0.5-4.6-0.5-6.9-0.5s-6.5,0-12,0h-11.5h-10.6v2.3c3.2,0,4.6,0,5.5,0.5c0.5,0,0.9,0.5,1.4,0.9c0.5,0.5,0.5,1.8,0.5,4.1
		c0,3.2,0,6.5,0,10.1v19.4c0,2.3,0,5.1,0,8.8c0,2.3-0.5,3.7-0.5,4.1c0,0.5-0.5,0.5-0.9,0.9c-0.9,0.5-2.8,0.5-5.1,0.5v2.3
		c6.5,0,9.7-0.5,9.7-0.5l22.6,0.5c3.2,0,5.5,0,7.8-0.5c0-3.2,0.5-7.4,0.9-12.4h-2.3C287.7,786.6,287.2,788.5,286.8,790.8z
		 M373.9,771.9c-0.9-0.9-2.8-1.8-5.1-2.3c-2.3-0.5-5.5-0.9-8.3-1.4c-3.2-0.5-5.5-0.9-6.9-1.4c-1.8-0.9-3.2-1.8-4.1-2.8
		c-0.9-1.4-1.4-2.8-1.4-5.1c0-3.7,0.9-6.5,3.2-8.8c2.3-2.3,5.1-3.2,8.8-3.2c2.8,0,5.5,0.9,8.3,2.3c0.9,0.9,1.8,1.4,2.8,2.3
		c0,0.5,0.5,2.3,0.5,6.5h2.3c0-2.8,0-4.6,0.5-6s0.5-2.8,0.9-4.6c-2.3-0.9-4.6-1.8-6.9-2.3c-2.3-0.5-5.1-0.9-6.9-0.9
		c-3.7,0-6.9,0.9-9.7,2.3c-3.2,1.4-5.5,3.7-6.9,6c-1.4,2.8-2.3,5.5-2.3,8.3c0,1.8,0.5,4.1,0.9,5.5c0.9,1.8,1.8,3.2,3.2,4.1
		c1.4,0.9,3.2,1.8,6,2.8c1.8,0.5,4.1,0.9,7.4,1.4c2.8,0.5,4.6,0.5,5.5,0.9c1.4,0.5,2.8,0.9,3.7,1.4c0.9,0.9,1.8,1.8,2.3,2.8
		c0.5,1.4,0.9,2.8,0.9,4.1c0,2.3-0.5,4.1-1.4,6c-0.9,1.8-2.8,3.2-4.6,4.6c-2.3,1.4-4.6,1.8-6.9,1.8c-1.8,0-3.7-0.5-5.5-0.9
		c-1.8-0.5-3.2-1.4-4.6-1.8c-0.9-0.9-1.8-1.4-2.3-2.3s-0.5-2.8-0.5-6.5h-2.3c0,5.5-0.5,9.2-0.9,11.5c4.1,1.8,8.8,2.8,13.4,2.8
		c6.5,0,12-1.8,16.1-5.5s6.5-8.3,6.5-12.9c0-2.3-0.5-4.1-0.9-5.5C376.2,774.2,375.3,772.8,373.9,771.9z M426.4,745.2v2.3
		c3.2,0,4.6,0,5.5,0.5c0.5,0,0.9,0.5,1.4,0.9c0.5,0.5,0.5,1.8,0.5,4.1c0,3.2,0,6.5,0,10.1v17.5c0,6.5,0,10.1,0,10.6
		c0,1.8-0.5,3.2-0.5,3.7c-0.5,0.5-0.9,0.5-1.4,0.9c-0.5,0-2.3,0.5-5.5,0.5v2.3l11.5-0.5c1.8,0,5.1,0,10.6,0.5v-2.3
		c-3.2,0-4.6,0-5.5-0.5c-0.5,0-0.9-0.5-1.4-0.9c-0.5-0.5-0.5-1.8-0.5-4.1c0-3.2,0-6.5,0-10.1v-17.5c0-6.5,0-10.1,0-10.6
		c0-1.8,0.5-3.2,0.5-3.7c0.5-0.5,0.9-0.5,1.4-0.9c0.5,0,2.3-0.5,5.5-0.5v-2.3c-5.1,0-8.8,0.5-11.1,0.5
		C435.2,745.2,431.5,745.2,426.4,745.2z M540.7,747.5c-3.7-1.4-8.8-2.3-14.7-2.3c-1.8,0-5.1,0-8.8,0s-6.9,0-8.8,0c-2.8,0-6,0-9.7,0
		v2.3c2.8,0,4.1,0,5.1,0.5c0.5,0,0.5,0.5,0.9,0.9c0.5,0.5,0.5,1.8,0.5,3.7c0,3.2,0,6,0,8.8v15.2c0,1.8,0,5.5-0.5,10.6
		c0,3.2,0,5.5-0.5,6.9c-0.9,0.5-2.3,1.4-3.7,2.3v1.8c3.7,0,6.5-0.5,8.3-0.5c0.9,0,3.2,0,6.9,0c2.8,0,4.6,0,6.5,0
		c4.6,0,8.3-0.5,11.1-0.9c2.8-0.9,5.1-1.8,7.8-3.2c2.3-1.4,4.6-3.2,6.9-6c2.3-2.3,3.7-5.5,5.1-8.8c1.4-3.2,1.8-6.9,1.8-10.6
		c0-5.5-1.4-9.7-4.1-13.4C547.6,751.6,544.4,748.8,540.7,747.5z M544.8,780.2c-0.9,3.2-2.3,5.5-3.7,7.4c-1.8,1.8-3.2,3.2-5.1,4.6
		c-1.8,0.9-3.7,1.8-6.5,2.3c-2.3,0.5-5.1,0.9-8.3,0.9s-6-0.5-8.8-0.9c0-2.8,0-5.1,0-6.9V776v-15.2v-5.5c0-3.2,0-5.5,0-6.5
		c3.2-0.5,6.5-0.9,9.7-0.9c6,0,10.6,0.9,13.8,2.8c3.2,1.8,6,4.1,7.4,7.8c1.4,3.7,2.3,7.4,2.3,12C546.2,774.2,545.8,777,544.8,780.2z
		 M641.2,790.8c-0.5,1.4-0.5,2.3-0.9,3.2c-1.4,0.5-2.3,0.9-3.7,0.9s-3.7,0.5-6.9,0.5c-4.6,0-8.8,0-12-0.5c0-2.3,0-6,0-10.6
		c0-5.1,0-8.8,0-11.1c3.2,0,5.5,0,7.4,0c4.1,0,6.9,0,8.3,0.5c0.9,0,1.4,0.5,1.8,0.9c0.5,0.5,0.5,1.8,0.5,3.7v2.8h2.8v-8.8v-7.8v-0.9
		h-2.3v2.8c0,1.8-0.5,2.8-0.5,3.2c0,0.5-0.9,0.5-1.4,0.5c-2.3,0.5-4.6,0.5-7.8,0.5c-2.3,0-5.1,0-8.3-0.5v-12.9c0-2.3,0-5.1,0-7.8
		c0.9,0,2.3,0,4.6-0.5c2.3,0,3.2,0,4.1,0c2.8,0,5.5,0,8.3,0.5c1.8,0,3.2,0.5,4.6,1.4c0.5,2.3,0.5,4.6,0.5,6.9h2.3
		c0.5-5.1,0.5-7.8,0.5-7.8c0-0.9,0.5-2.3,0.9-3.7c-2.3-0.5-4.6-0.5-6.9-0.5c-2.3,0-6.5,0-12,0h-11.5h-10.6v2.3c3.2,0,4.6,0,5.5,0.5
		c0.5,0,0.9,0.5,1.4,0.9c0.5,0.5,0.5,1.8,0.5,4.1c0,3.2,0,6.5,0,10.1v19.4c0,2.3,0,5.1,0,8.8c0,2.3-0.5,3.7-0.5,4.1
		c0,0.5-0.5,0.5-0.9,0.9c-0.9,0.5-2.8,0.5-5.1,0.5v2.3c6.5,0,9.7-0.5,9.7-0.5l22.6,0.5c3.2,0,5.5,0,7.8-0.5c0-3.2,0.5-7.4,0.9-12.4
		h-2.3C642.1,786.6,641.6,788.5,641.2,790.8z M738.4,745.2v2.3c2.8,0,4.1,0,5.1,0.5c0.5,0,0.5,0.5,0.9,0.9c0,0.5,0.5,1.8,0.5,3.7
		c0,3.2,0.5,6,0.5,8.8v27.6c-0.9-0.9-2.3-2.3-3.7-4.1c-2.3-2.3-5.1-6-8.8-10.1l-11.1-13.8l-8.3-9.7c-0.9-1.4-2.8-3.2-4.6-6
		c-1.8,0-3.7,0-5.5,0c-0.9,0-3.7,0-8.3,0v2.3c1.8,0,3.2,0,4.1,0c0.5,0,0.9,0.5,1.4,0.9c0.9,0.5,1.4,1.4,1.4,1.8s0,0.9,0,1.8v30.9
		c0,2.3,0,5.1,0,8.8c0,2.3-0.5,3.7-0.5,4.1c0,0.5-0.5,0.5-0.9,0.9c-0.9,0.5-2.8,0.5-5.1,0.5v2.3c3.2,0,6.5-0.5,9.7-0.5
		c2.8,0,5.1,0,7.4,0.5v-2.3c-2.8,0-4.1,0-5.1-0.5c-0.5,0-0.5-0.5-0.9-0.9c0-0.5-0.5-1.8-0.5-3.7c0-3.2-0.5-6.5-0.5-8.8v-29.5
		l26.7,32.3l5.1,6.5c0.9,1.4,2.3,3.2,4.6,5.5c0.9,0.9,1.4,1.4,1.4,1.4h0.5h0.9l3.7,0.9c0-10.1,0-17.1,0-20.7v-18c0-2.3,0-5.1,0-8.8
		c0-2.3,0.5-3.7,0.5-4.1c0-0.5,0.5-0.5,0.9-0.9c0.9-0.5,2.8-0.5,5.1-0.5v-2.3c-2.3,0-5.1,0-7.8,0
		C743.9,745.2,741.2,745.2,738.4,745.2z M818.6,752.5c1.8-1.8,4.1-3.2,6.5-4.1c2.3-0.9,5.5-1.4,9.2-1.4c4.6,0,8.3,0.5,11.1,1.8
		c2.3,1.4,3.7,3.2,4.1,5.5v4.6h2.3c0-2.8,0.5-5.5,0.9-7.4c0.5-1.4,0.9-2.8,1.4-4.1c-0.5,0-2.3-0.5-5.1-1.4s-5.1-1.4-6.9-1.4
		c-1.8,0-4.1-0.5-6.5-0.5c-9.7,0-17.5,2.8-23,7.8c-5.5,5.1-8.3,12-8.3,19.8c0,3.2,0.5,6,1.4,8.8c0.9,2.8,1.8,5.1,3.7,7.4
		c1.4,2.3,3.7,4.1,6,6c2.3,1.8,5.5,3.2,8.8,4.1c3.2,0.9,6.9,1.4,11.1,1.4c3.2,0,6.5-0.5,9.2-0.9c2.8-0.5,5.5-1.8,8.8-3.2l1.4-3.7
		l-0.5-0.9c-1.8,1.4-4.1,2.3-6,3.2c-2.8,0.9-6,1.4-9.7,1.4c-7.8,0-13.8-2.3-18.4-6.9c-4.6-4.6-6.9-10.6-6.9-18.4
		c0-4.1,0.5-7.8,1.8-11.1C814.9,756.7,816.3,754.4,818.6,752.5z M903.8,745.2v2.3c3.2,0,4.6,0,5.5,0.5c0.5,0,0.9,0.5,1.4,0.9
		s0.5,1.8,0.5,4.1c0,3.2,0,6.5,0,10.1v17.5c0,6.5,0,10.1,0,10.6c0,1.8-0.5,3.2-0.5,3.7c-0.5,0.5-0.9,0.5-1.4,0.9
		c-0.5,0-2.3,0.5-5.5,0.5v2.3l11.5-0.5c1.8,0,5.1,0,10.6,0.5v-2.3c-3.2,0-4.6,0-5.5-0.5c-0.5,0-0.9-0.5-1.4-0.9
		c-0.5-0.5-0.5-1.8-0.5-4.1c0-3.2,0-6.5,0-10.1v-17.5c0-6.5,0-10.1,0-10.6c0-1.8,0.5-3.2,0.5-3.7c0.5-0.5,0.9-0.5,1.4-0.9
		c0.5,0,2.3-0.5,5.5-0.5v-2.3c-5.1,0-8.8,0.5-11.1,0.5C912.1,745.2,908.4,745.2,903.8,745.2z M1027.8,794c-0.9-1.4-2.8-5.5-5.1-11.5
		l-16.1-37.8h-2.8c-3.2,8.3-5.5,13.4-6.5,15.7l-9.7,21.2c-2.8,6-4.6,9.7-5.1,10.6c-0.9,1.8-1.4,2.8-1.8,3.2
		c-0.5,0.5-0.9,0.5-1.4,0.9c-0.5,0-1.8,0-3.7,0.5v2.8c2.8,0,5.5-0.5,7.8-0.5c2.3,0,5.5,0,9.7,0.5v-2.8c-2.3,0-4.1,0-5.1-0.5
		c-0.5,0-0.9-0.5-1.4-0.5c0,0-0.5-0.5-0.5-0.9c0-0.9,0.5-2.3,0.9-3.7l4.1-9.7h22.1l4.6,11.5c0.5,0.9,0.5,1.4,0.5,2.3
		c0,0.5,0,0.5-0.5,0.9c-0.5,0.5-0.5,0.5-1.4,0.5c-0.5,0-2.3,0-5.1,0.5v2.8l12-0.5c1.4,0,4.1,0,8.3,0.5v-2.8c-1.8,0-3.2,0-3.7-0.5
		C1027.8,796.3,1028.2,794.9,1027.8,794z M993.7,777.4l9.7-22.6l9.2,22.6H993.7z M1121.8,785.3l-1.4,6.5c-0.5,0.9-0.5,1.8-0.9,2.8
		c-2.8,0.9-7.8,1.4-14.7,1.4c-2.8,0-5.5,0-8.8-0.5c0-1.8,0-3.7,0-6.5v-25.3c0-6.5,0-10.1,0-10.6c0-1.8,0.5-3.2,0.5-3.7
		c0.5-0.5,0.9-0.5,1.4-0.9c0.5,0,2.3-0.5,5.5-0.5v-2.3c-5.5,0-9.2,0.5-11.1,0.5c-1.4,0-5.1,0-11.5-0.5v2.3c3.2,0,4.6,0,5.5,0.5
		c0.5,0,0.9,0.5,1.4,0.9c0.5,0.5,0.5,1.8,0.5,4.1c0,3.2,0,6.5,0,10.1v20.3c0,0.5,0,2.8,0,6c0,2.3,0,3.7-0.5,4.6
		c0,0.5-0.5,0.5-0.5,0.9c-0.5,0.5-1.4,0.9-2.8,1.8v1.8c2.3,0,5.1-0.5,7.4-0.5l22.6,0.5c2.8,0,4.6,0,6,0c0.5,0,1.4,0,2.3-0.5
		c0.5-5.1,0.9-9.7,1.8-13.4L1121.8,785.3L1121.8,785.3z"/>
	<path fill="#E6E6E6" d="M806.1,0H468.8v28.6h336.9V0H806.1z M826.9,45.2H448.1c-8.8,0-15.7,6.9-15.7,15.7s6.9,15.7,15.7,15.7h379.3
		c8.8,0,15.7-6.9,15.7-15.7S835.6,45.2,826.9,45.2z M468.8,374.7h89.9v-88.9c0-43.3,35-78.3,78.3-78.3l0,0c43.3,0,78.3,35,78.3,78.3
		v88.9h89.9V107.4H468.8V374.7z"/>
</g>
</svg>
